<svg xmlns="http://www.w3.org/2000/svg" xmlns:xlink="http://www.w3.org/1999/xlink" display="none" width="0" height="0" version="1.1">
<defs>
<symbol id="icon-business" viewBox="0 0 1024 1024">
	<title>business</title>
	<path class="path1" d="M948.917 192.349c-32.365 0-59.919 20.62-70.443 49.373l-147.884 19.044c-13.782-16.504-34.487-27.028-57.615-27.028-41.378 0-75.083 33.694-75.083 75.083 0 16.74 5.584 32.162 14.886 44.669l-109.239 245.73c-7.020 0.772-13.75 2.54-20.062 5.133l-89.251-86.186c1.254-5.434 1.983-11.049 1.983-16.858 0-41.389-33.694-75.073-75.083-75.073s-75.073 33.684-75.073 75.073c0 7.631 1.157 14.993 3.29 21.948l-153.339 161.259c-6.655-1.95-13.653-3.033-20.92-3.033-41.389-0.011-75.083 33.694-75.083 75.073 0 41.4 33.694 75.094 75.083 75.094s75.073-33.694 75.073-75.094c0-8.584-1.522-16.794-4.19-24.478l151.667-159.512c7.395 2.454 15.282 3.815 23.481 3.815 10.010 0 19.548-2.015 28.293-5.584l89.423 86.347c-1.211 5.359-1.918 10.91-1.918 16.622 0 41.389 33.694 75.083 75.083 75.083s75.073-33.694 75.073-75.083c0-19.108-7.245-36.524-19.044-49.791l106.763-240.168c33.801-0.814 62.073-24.038 70.572-55.375l141.904-18.273c13.578 19.516 36.127 32.355 61.655 32.355 41.378 0 75.083-33.684 75.083-75.073s-33.705-75.094-75.083-75.094z"></path>
</symbol>
<symbol id="icon-quote" viewBox="0 0 1024 1024">
	<title>quote</title>
	<path class="path1" d="M0 128v384h256c0 141.12-114.752 256-256 256v128c211.744 0 384-172.256 384-384v-384h-384z"></path>
	<path class="path2" d="M640 128v384h256c0 141.12-114.752 256-256 256v128c211.744 0 384-172.256 384-384v-384h-384z"></path>
</symbol>
<symbol id="icon-money" viewBox="0 0 1024 1024">
	<title>money</title>
	<path class="path1" d="M791.769 701.821c0.595-81.013-31.429-145.083-95.306-190.329-49.336-34.837-109.207-53.009-167.115-70.471-120.631-36.571-155.625-55.833-155.625-113.521 0-64.258 83.508-87.121 154.997-87.121 52.063 0 111.962 16.187 149.161 40.177l73.748-114.215c-48.617-31.517-115.155-53.015-180.859-59.687v-106.655h-136.042v114.134c-120.93 26.603-197.11 105.64-197.11 213.367 0 75.446 31.351 135.278 93.005 177.479 46.892 32.218 104.081 49.517 159.325 66.266 118.323 35.764 166.372 57.558 165.826 129.732l-0.003 0.532c0 60.578-80.279 82.112-149.055 82.112-64.967 0-135.616-28.472-175.664-70.806l-98.831 93.485c50.716 53.64 124.401 91.564 202.505 106.428v111.273h136.045v-108.878c134.378-19.235 220.867-100.136 221-213.304z"></path>
</symbol>
<symbol id="icon-global" viewBox="0 0 1024 1024">
	<title>global</title>
	<path class="path1" d="M249.832 249.914c11.237-56.966 26.437-109.687 45.316-155.985 9.553-23.493 19.928-44.861 31.029-64.2-137.362 49.976-246.534 159.131-296.513 296.522 19.322-11.123 40.719-21.448 64.203-31.012 46.303-18.896 98.99-34.073 155.965-45.325z"></path>
	<path class="path2" d="M557.966 40.537c-21.362-26.5-43.236-40.471-63-40.471-37.532 0-82.726 50.511-117.624 141.615 44.298-31.962 91.23-60.343 140.699-83.608 12.953-6.077 26.318-11.951 39.925-17.536z"></path>
	<path class="path3" d="M740.118 740.186c-11.251 56.989-26.435 109.65-45.325 155.951-9.57 23.487-19.931 44.915-31.021 64.192 137.354-49.979 246.517-159.14 296.502-296.496-19.314 11.089-40.716 21.496-64.195 31.043-46.303 18.867-98.996 34.090-155.962 45.31z"></path>
	<path class="path4" d="M50.004 535.921c24.503-55.714 55.387-108.674 91.087-158.303-90.749 34.87-141.029 79.933-141.092 117.391 0 0.017 0 0.040 0 0.060 0 0.017 0 0.040 0 0.057 0.034 19.78 14.048 41.675 40.619 63.017 3.047-7.491 6.176-14.899 9.385-22.221z"></path>
	<path class="path5" d="M1018.649 197.181c-15.968-80.945-75.879-139.459-155.47-159.322-104.788-26.139-218.945 6.725-313.944 51.415-76.635 36.11-147.314 84.251-211.332 139.524-107.36 92.766-199.369 208.063-256.705 338.316-42.084 95.594-72.249 212.106-38.099 314.752 13.59 40.744 38.161 77.147 73.102 102.41 42.946 31.023 96.601 41.786 148.833 39.316 65.967-3.112 129.576-23.052 189.477-50.923 13.909 11.422 27.649 17.328 40.454 17.328 48.858 0 110.68-85.338 145.88-234.748-47.097 5.107-96.015 7.84-145.88 7.84-49.871 0-98.774-2.734-145.871-7.84 23.61 100.208 59.216 171.592 94.826 207.727-34.73 12.566-70.604 22.014-107.588 27.595-86.538 12.953-193.142-4.122-230.373-94.444-14.449-34.981-16.5-73.682-12.082-111.403 55.95 77.219 133.655 137.752 224.048 172.479 1.96-0.344 3.912-0.694 5.843-1.058-10.179-18.213-19.763-38.218-28.625-60.007-18.879-46.3-34.079-98.962-45.316-155.951-49.396-9.721-95.548-22.44-137.115-37.951 9.644-29.854 21.846-58.869 35.826-86.991 25.718 9.499 54.514 18.224 86.237 25.664-5.104-47.103-7.835-95.975-7.835-145.843 0-2.782 0.046-5.528 0.060-8.247 30.571-42.153 64.308-81.913 100.436-119.437-3.983 39.823-6.213 82.462-6.213 127.684 0 59.031 3.767 113.65 10.327 163.413 49.757 6.563 104.379 10.287 163.413 10.287 59.037 0 113.656-3.727 163.424-10.287 6.546-49.763 10.316-104.381 10.316-163.413 0-59.040-3.769-113.653-10.316-163.424-49.768-6.555-104.387-10.361-163.424-10.361-45.134 0-87.642 2.262-127.451 6.188 20.679-19.641 41.911-38.75 63.668-57.131 17.724-15.010 36.102-29.425 55.048-43.231 2.905-0.017 5.804-0.060 8.734-0.060 49.865 0 98.783 2.711 145.88 7.832-7.442-31.627-16.133-60.368-25.604-86.004 11.283-5.57 22.657-10.811 34.107-15.744 17.246-7.442 34.912-14.264 52.881-20.068 15.473 41.47 28.153 87.571 37.888 136.853 56.966 11.251 109.659 26.429 155.962 45.325 21.738 8.811 41.663 18.367 59.851 28.563 0.364-2.011 0.72-4.097 1.098-6.114-34.653-89.935-94.78-167.222-171.541-223.073 7.343-0.839 14.742-1.385 22.139-1.67 48.027-1.92 91.776 9.286 129.675 39.248-0.094-0.174-0.245-0.327-0.418-0.458 8.341 8.993 16.762 17.22 23.894 27.285 15.974 22.728 24.822 49.441 29.524 76.564 9.206 53.248 1.422 108.777-12.751 160.417-4.378 16.068-9.553 31.851-15.251 47.441-36.352-35.45-107.468-70.806-207.144-94.279 5.118 47.094 7.838 96.043 7.838 145.908s-2.72 98.74-7.838 145.843c149.348-35.146 234.703-96.971 234.788-145.783 0-0.020 0-0.043 0-0.057 0-0.020 0-0.043 0-0.060-0.026-12.842-5.98-26.571-17.411-40.483 36.838-79.52 63.276-170.573 46.118-257.356z"></path>
</symbol>
<symbol id="icon-earth" viewBox="0 0 1024 1024">
	<title>earth</title>
	<path class="path1" d="M319.984 986.609c59.559-35.245 164.176-104.288 268.026-207.196-17.48-23.482-35.595-48.081-53.929-73.205-7.973 0.066-15.947 0.131-23.92 0.131-0.263 0-0.504 0-0.767 0-19.254 0-38.246-0.46-56.974-1.358-12.814 30.448-42.911 51.805-78.024 51.805-8.937 0-17.392-1.774-25.497-4.315-50.249 82.143-88.648 151.098-110.75 192.060 25.848 16.341 53.206 30.491 81.836 42.079z"></path>
	<path class="path2" d="M980.234 304.716c-21.839 37.654-47.489 80.587-76.36 126.697 45.737 12.705 85.538 26.198 118.329 38.487-4.753-58.398-19.276-113.97-41.969-165.183z"></path>
	<path class="path3" d="M800.375 215.301c2.388 7.886 4.118 16.078 4.118 24.752 0 24.949-10.996 47.139-28.148 62.625 7.908 12.617 16.012 25.19 24.424 37.632 18.028 26.789 36.866 53.185 55.923 78.857 0.898 0.219 1.84 0.438 2.738 0.657 38.333-60.676 71.146-116.226 97.191-161.788-20.634-36.121-45.606-69.46-74.169-99.382-24.051 15.377-51.936 34.259-82.077 56.646z"></path>
	<path class="path4" d="M702.702 587.527c13.669 0 26.395 3.549 37.829 9.288 33.164-46.153 64.29-92.241 92.898-136.4-0.416-0.526-0.789-1.073-1.205-1.599-75.79-17.589-163.277-31.258-256.81-33.492-13.34 15.903-26.527 32.331-39.363 49.417-19.648 26.242-38.749 52.659-57.127 78.923 24.643 35.42 50.753 72.044 77.192 108.45 21.226-0.372 42.32-0.898 63.151-1.665 5.761-41.137 40.721-72.921 83.435-72.921z"></path>
	<path class="path5" d="M638.368 726.513c-5.673-6.747-10.492-14.15-13.931-22.387-12.179 0.46-24.446 0.81-36.8 1.139 10.492 14.26 20.963 28.432 31.324 42.386 6.528-6.922 12.989-13.953 19.408-21.138z"></path>
	<path class="path6" d="M374.439 587.527c8.871 0 17.239 1.752 25.256 4.271 8.477-12.661 17.151-25.409 25.979-38.246-6.79-9.835-13.603-19.736-20.043-29.308-18.969-28.191-36.975-59.734-53.776-92.963-151.098 9.156-280.708 26.154-349.73 36.34-1.249 14.632-2.037 29.396-2.037 44.357 0 15.049 0.789 29.922 2.059 44.642 56.361 23.745 161.766 62.801 293.194 86.283 11.916-32.244 42.692-55.375 79.098-55.375z"></path>
	<path class="path7" d="M518.966 425.17c-40.414 0.438-80.346 1.709-119.205 3.57 13.362 25.19 27.447 49.154 42.188 71.037 3.417 5.082 6.944 10.273 10.492 15.465 15.771-22.255 31.981-44.576 48.628-66.722 5.892-7.951 11.872-15.706 17.896-23.35z"></path>
	<path class="path8" d="M457.961 661.28c14.632 0.679 29.462 1.073 44.379 1.161-16.954-23.548-33.646-47.073-49.986-70.38-5.279 7.754-10.492 15.487-15.662 23.197 11.434 12.508 18.991 28.388 21.269 46.022z"></path>
	<path class="path9" d="M312.032 728.834c-10.492-11.522-17.852-25.869-20.7-41.882-120.87-21.007-219.835-54.893-282.286-79.864 23.832 126.762 94.278 237.009 192.958 312.229 22.803-42.035 60.764-109.983 110.027-190.483z"></path>
	<path class="path10" d="M331.286 388.742c-49.066-106.501-86.48-222.661-107.99-299.503-111.32 76.184-190.899 195.193-215.257 333.28 69.416-10.010 186.935-24.884 323.247-33.777z"></path>
	<path class="path11" d="M378.294 385.939c54.871-2.891 112.13-4.71 170.002-4.731 0.241 0 0.504 0 0.723 0 2.147 0 4.162 0.066 6.287 0.066 30.579-35.223 61.903-67.357 92.92-96.512-8.127-12.989-13.033-28.235-13.033-44.686 0-22.277 8.784-42.364 22.847-57.478-36.208-70.862-63.896-134.955-80.522-178.282-21.423-2.738-43.284-4.315-65.473-4.315-90.773 0-175.96 23.723-249.867 65.166 20.809 75.724 61.267 205.729 116.117 320.772z"></path>
	<path class="path12" d="M648.291 859.803c-10.536-13.975-21.948-29.133-33.667-44.773-89.086 87.86-177.888 150.923-240.185 190.111 43.809 12.201 89.941 18.86 137.649 18.86 79.711 0 155.107-18.203 222.333-50.644-20.284-26.483-47.752-62.823-86.129-113.554z"></path>
	<path class="path13" d="M783.903 694.685c-9.901 35.748-42.32 62.078-81.201 62.078-9.835 0-19.167-2.015-27.928-5.104-9.638 10.909-19.364 21.51-29.089 31.784 50.687 67.729 96.687 127.748 128.23 168.535 104.989-62.604 185.62-161.722 224.479-279.81-56.996 7.426-130.924 15.881-214.491 22.518z"></path>
	<path class="path14" d="M612.871 382.938c63.874 3.395 124.331 11.544 179.728 22.255-9.967-13.909-19.473-27.447-28.148-40.392-9.331-13.822-18.312-27.841-27.118-41.969-5.651 1.183-11.456 1.84-17.436 1.84-14.15 0-27.315-3.811-39.034-9.967-22.715 21.138-45.518 43.919-67.992 68.233z"></path>
	<path class="path15" d="M695.408 159.466c7.754-2.366 15.903-4.030 24.446-4.030 21.948 0 41.75 8.587 56.799 22.299 26.417-19.539 50.994-36.296 72.964-50.534-62.297-54.696-137.956-94.475-221.5-113.839 15.771 38.289 38.53 89.546 67.291 146.104z"></path>
	<path class="path16" d="M1023.912 517.849c-32.616-12.661-74.323-27.381-123.258-41.334 39.779 50.534 78.813 96.468 113.554 135.743 6.068-30.579 9.375-62.165 9.704-94.409z"></path>
	<path class="path17" d="M972.217 631.359c-35.814-41.487-74.191-87.991-110.443-134.21-27.425 41.947-56.974 85.341-88.254 128.865 4.929 7.491 8.455 15.859 10.777 24.73 71.431-5.761 135.678-12.836 187.92-19.386z"></path>
</symbol>
<symbol id="icon-web" viewBox="0 0 1024 1024">
	<title>web</title>
	<path class="path1" d="M654.188 142.165c-36.323 0-71.403 5.345-104.599 15.155-2.849 6.348-5.531 12.751-8.204 19.145l0.009-0.009c-3.601 8.668-7.062 17.373-10.366 26.133 24.862-19.349 52.322-32.889 81.379-39.655-17.874 18.468-33.771 48.536-46.708 87.421-18.969 3.406-37.4 7.833-55.107 13.289-1.763 6.023-3.387 12.102-5.030 18.162 17.558-5.837 35.896-10.654 54.847-14.403-10.654 36.425-18.913 79.328-24.101 126.76-19.080 2.088-37.483 4.64-54.977 7.675-0.752 5.41-1.466 10.83-2.125 16.259 17.438-3.137 36.008-5.8 55.496-7.972-1.429 15.331-2.515 31.126-3.295 47.255 1.29-0.148 2.552-0.278 3.861-0.278h11.925c0.807-16.742 1.958-32.973 3.452-48.601 32.184-3.063 66.763-4.816 103.522-4.816 36.741 0 71.347 1.726 103.531 4.789 3.063 32.184 4.789 66.772 4.789 103.522 0 36.759-1.726 71.347-4.789 103.531-32.184 3.053-66.772 4.789-103.531 4.789s-71.347-1.745-103.522-4.807c-1.856-19.535-3.146-40.072-3.944-61.334l-14.18 31.794c0.622 9.429 1.336 18.756 2.181 27.906-4.696-0.538-9.299-1.104-13.874-1.698l-6.673 14.932c7.285 0.965 14.644 1.893 22.152 2.719 5.188 47.441 13.438 90.353 24.11 126.797-30.402-6.004-59.181-14.839-85.75-26.096 0.937 6.125 1.967 12.213 3.137 18.282 27.386 10.867 56.879 19.22 87.885 24.797 12.965 38.977 28.917 69.101 46.847 87.578-49.093-11.368-93.481-42.365-128.802-87.161 3.554 12.788 7.786 25.261 12.584 37.446 13.828 13.763 28.63 25.762 44.258 35.785-11.999-4.074-23.73-8.788-35.126-14.097 3.192 7.202 6.468 14.384 9.846 21.484 42.921 17.466 89.75 27.164 138.852 27.164 203.935 0 369.849-165.904 369.849-369.849 0-203.907-165.886-369.793-369.812-369.793zM918.641 441.019c57.037 20.175 89.592 45.993 89.592 70.976 0 24.992-32.565 50.828-89.592 70.985 3.276-22.997 5.039-46.699 5.039-70.985 0-24.268-1.763-47.989-5.039-70.976zM915.838 423.526c-6.7-37.26-17.484-72.322-31.72-104.209 61.937 37.994 105.378 90.994 119.289 151.065-18.477-17.93-48.601-33.873-87.569-46.856zM773.654 410.125c49.585 5.559 92.822 14.403 128.189 25.326 3.926 24.667 6.041 50.262 6.041 76.553 0 26.282-2.125 51.877-6.041 76.544-35.377 10.932-78.614 19.776-128.189 25.326 3.007-32.277 4.64-66.382 4.64-101.889 0-35.497-1.633-69.593-4.64-101.861zM989.422 398.376c-26.607-41.511-67.282-77.277-117.563-104.051-26.755-50.272-62.522-90.947-104.023-117.554 103.94 35.339 186.265 117.674 221.586 221.605zM846.876 282.085c-31.896-14.245-66.948-25.020-104.209-31.711-12.965-38.977-28.927-69.111-46.856-87.578 60.081 13.92 113.062 57.362 151.065 119.289zM654.188 157.96c24.992 0 50.819 32.555 70.976 89.592-22.987-3.276-46.708-5.039-70.976-5.039-24.287 0-48.016 1.763-70.985 5.039 20.166-57.046 45.993-89.592 70.985-89.592zM654.188 387.908c-35.507 0-69.621 1.661-101.889 4.668 5.559-49.613 14.422-92.859 25.345-128.254 24.649-3.926 50.244-6.014 76.526-6.014s51.886 2.125 76.544 6.032c10.951 35.386 19.795 78.614 25.335 128.198-32.258-2.979-66.373-4.631-101.861-4.631zM747.948 267.403c40.861 8.055 78.781 21.224 112.329 38.513 17.271 33.548 30.449 71.458 38.495 112.329-36.425-10.654-79.319-18.904-126.732-24.101-5.178-47.432-13.419-90.325-24.092-126.741zM772.039 629.874c47.422-5.206 90.316-13.447 126.741-24.11-8.055 40.852-21.233 78.771-38.504 112.329-33.548 17.28-71.458 30.449-112.329 38.504 10.672-36.407 18.913-79.3 24.092-126.723zM552.309 631.47c32.268 2.988 66.382 4.64 101.889 4.64 35.488 0 69.602-1.652 101.879-4.64-5.559 49.594-14.403 92.822-25.326 128.198-24.667 3.907-50.262 6.032-76.544 6.032-26.3 0-51.896-2.162-76.563-6.088-10.951-35.377-19.795-78.586-25.335-128.143zM654.188 866.049c-24.992 0-50.828-32.537-70.976-89.555 22.987 3.276 46.708 5.002 70.976 5.002s47.998-1.754 70.976-5.039c-20.157 57.046-45.975 89.592-70.976 89.592zM742.658 773.635c37.27-6.691 72.322-17.466 104.209-31.711-37.994 61.937-90.975 105.369-151.056 119.289 17.92-18.449 33.882-48.582 46.847-87.578zM767.817 847.238c41.511-26.607 77.268-67.264 104.042-117.545 50.281-26.783 90.947-62.549 117.545-104.042-35.302 103.921-117.628 186.256-221.586 221.586zM884.118 704.701c14.236-31.887 25.020-66.958 31.72-104.209 38.968-12.974 69.092-28.927 87.56-46.875-13.902 60.090-57.352 113.090-119.28 151.084z"></path>
	<path class="path2" d="M470.243 629.985l54.243-121.572h142.379c8.705 0 15.786-7.072 15.786-15.786s-7.081-15.786-15.786-15.786h-152.633c-6.236 0-11.879 3.666-14.422 9.355l-59.264 132.839c-0.594-0.037-1.179-0.102-1.782-0.102-1.578 0-3.137 0.102-4.687 0.223l-94.075-263.524c11.897-9.271 19.6-23.693 19.6-39.915 0-27.906-22.7-50.606-50.606-50.606s-50.615 22.7-50.615 50.606c0 13.215 5.132 25.224 13.456 34.244l-61.584 110.529h-111.614c-6.673-20.157-25.669-34.755-48.035-34.755-27.906 0-50.606 22.69-50.606 50.606s22.7 50.606 50.606 50.606c22.421 0 41.446-14.644 48.081-34.885h120.848c5.726 0 11.006-3.1 13.791-8.102l66.067-118.565c3.109 0.594 6.32 0.937 9.605 0.937 0.427 0 0.854-0.056 1.281-0.056l94.808 265.603c-10.357 9.28-16.927 22.7-16.927 37.678 0 27.906 22.7 50.596 50.606 50.596s50.606-22.69 50.606-50.596c0.009-16.027-7.489-30.291-19.127-39.571zM50.606 519.058c-23.553 0-42.717-19.145-42.717-42.708 0-23.544 19.155-42.717 42.717-42.717 17.957 0 33.326 11.146 39.636 26.867h-39.636c-8.714 0-15.786 7.072-15.786 15.786s7.072 15.786 15.786 15.786h39.673c-6.273 15.786-21.67 26.987-39.673 26.987zM266.28 315.726c0-23.544 19.164-42.717 42.717-42.717s42.717 19.164 42.717 42.717c0 12.742-5.642 24.175-14.524 32.008l-13.327-37.316c-2.088-5.837-7.387-9.911-13.568-10.422-6.144-0.52-12.083 2.636-15.090 8.046l-19.303 34.643c-6.014-7.359-9.624-16.742-9.624-26.959zM303.485 358.044l2.348-4.204 1.615 4.529c-1.336-0.056-2.654-0.158-3.963-0.325zM437.029 626.923l-0.102 0.213-0.074-0.195c0.056-0.019 0.121-0.019 0.176-0.019zM438.764 712.255c-23.553 0-42.717-19.155-42.717-42.717 0-11.461 4.557-21.846 11.934-29.558l12.436 34.857c2.172 6.069 7.814 10.227 14.264 10.459 0.204 0.019 0.408 0.019 0.613 0.019 6.209 0 11.87-3.647 14.412-9.355l17.178-38.485c8.918 7.842 14.589 19.285 14.589 32.064 0.009 23.563-19.145 42.717-42.708 42.717z"></path>
</symbol>
<symbol id="icon-dollarEuro" viewBox="0 0 1024 1024">
	<title>dollarEuro</title>
	<path class="path1" d="M564.286 589.987h199.357v-131.336h-216.303c-9.303-44.742-17.036-86.48-17.036-139.003 0-89.655 41.747-166.889 156.056-166.889 60.247 0 105.046 13.935 134.372 30.913l34.023-143.651c-34.023-20.121-92.691-38.637-176.127-38.637-75.851 0-142.685 19.458-195.839 54.683v789.123c33.384-34.325 57.613-73.208 70.655-117.729 12.413-43.261 12.413-89.573 10.842-137.473z"></path>
	<path class="path2" d="M482.797 866.488h415.243v156.096h-415.243v-156.096z"></path>
	<path class="path3" d="M407.617 230.344c18.042 0 16.381 1.481 31.772 3.641l-0.033-233.985h-103.082v122.688c-126.411 22.51-201.525 105.144-201.525 212.793 0 116.379 85.097 176.512 216.548 224.109 39.439 14.377 64.437 29.326 86.472 46.010v-163.845c-0.908-0.385 0.786-0.777-0.188-1.146-106.388-42.573-148.847-71.302-148.847-122.704 0-42.483 31.273-87.56 118.883-87.56z"></path>
	<path class="path4" d="M355.069 784.827c-76.375 0-146.449-26.298-195.258-55.035l-33.851 117.688c45.085 30.021 123.964 52.515 202.802 55.035v121.485h102.665l-0.115-255.071c-20.865 10.146-46.615 15.898-76.244 15.898z"></path>
</symbol>
<symbol id="icon-dollar" viewBox="0 0 1024 1024">
	<title>dollar</title>
	<path class="path1" d="M693.131 298.369c-3.427-9.197-7-17.996-12.245-27.252-2.579-4.933-4.755-8.451-7.095-12.526-2.987-4.957-5.721-8.54-8.696-12.954-12.028-16.662-26.377-33.296-44.245-48.305-17.859-14.86-39.478-28.131-64.729-35.913-10.286-3.254-21.179-5.452-32.361-6.606 0-16.084 0-34.628 0-53.202 0-25.407 0-50.815 0-69.872 0.059-1.182-0.18-2.348 0.263-3.482 0.669-1.14 0.61-2.263-0.752-3.345-2.257-2.162-4.383-4.23-6.39-6.164-3.846-3.864-7.837-7.239-11.038-10.028-3.021-2.767-6.127-4.951-7.95-6.433-1.908-1.493-2.912-2.288-2.912-2.288s-1.014 0.782-2.92 2.288c-1.821 1.481-4.933 3.666-7.95 6.433-3.219 2.789-7.196 6.164-11.024 10.028-1.995 1.934-4.133 3.989-6.374 6.164-1.368 1.081-1.427 2.203-0.758 3.345 0.443 1.136 0.186 2.3 0.247 3.482 0 19.059 0 44.466 0 69.872 0 20.348 0 40.559 0 57.658-24.966 6.653-48.813 19.304-68.714 37.047-22.254 19.512-39.329 45.456-49.368 74.335-9.969 28.925-12.315 60.879-6.885 91.211 5.297 30.208 18.043 59.051 33.892 83 15.84 23.669 32.205 43.611 49.56 63.59 34.46 39.371 71.473 74.179 104.155 108.354 16.341 16.971 31.249 34.185 43.063 50.731 11.873 16.628 18.861 32.716 19.615 45.082 0.392 6.259-0.216 12.194-2.748 18.681-2.185 6.273-6.891 13.736-11.539 19.661-11.669 14.502-24.439 24.511-39.715 31.75-30.174 14.263-66.714 14.071-97.437 4.84-30.835-9.044-56.769-27.080-69.012-46.479-12.303-19.435-10.517-37.053-2.263-53.705 8.464-16.244 20.528-29.026 28.674-37.292 8.522-8.647 13.085-13.259 13.085-13.259s-1.653 0.236-4.82 0.667c-3.219 0.382-7.716 1.362-13.886 2.965-5.895 1.875-13.439 4.062-21.644 8.457-8.296 4.23-17.798 10.009-26.854 19.445-9.102 9.175-17.731 22.862-21.023 40.327-3.379 17.465 0.525 37.364 9.343 54.255 17.911 34.066 50.712 59.582 90.358 75.624 11.861 4.695 24.558 8.375 37.807 10.953-0.143 0.683-0.085 1.338 0.257 2.009 0.538 1.134 0.293 2.282 0.346 3.438 0 18.804 0 43.839 0 68.876s0 50.086 0 68.876c-0.065 1.168 0.192 2.306-0.257 3.438-0.675 1.126-0.616 2.223 0.746 3.286 2.257 2.148 4.379 4.169 6.384 6.081 3.84 3.824 7.813 7.154 11.008 9.878 3.045 2.736 6.152 4.887 7.96 6.368 1.924 1.479 2.926 2.243 2.926 2.243s0.996-0.764 2.92-2.243c1.811-1.459 4.915-3.607 7.95-6.368 3.219-2.724 7.178-6.055 11.020-9.878 1.995-1.91 4.139-3.931 6.39-6.081 1.362-1.053 1.423-2.16 0.742-3.286-0.43-1.134-0.18-2.282-0.251-3.438 0-18.79 0-43.839 0-68.876 0-25.059 0-50.098 0-68.876 0.046-0.859 0.012-1.708 0.141-2.53 14.502-1.459 29.218-4.468 43.696-9.892 24.653-8.886 48.843-25.156 67.059-44.555 10.201-11.026 18.861-22.434 25.991-37.269 7.085-14.476 11.325-31.88 11.515-49.069 0.263-17.248-3.632-33.648-8.922-48.138-5.412-14.502-12.362-27.391-19.768-39.298-14.884-23.772-32.239-43.575-49.344-62.735-17.153-19.15-34.915-36.887-52.238-54.59-17.285-17.697-34.198-35.273-50.33-52.887-15.85-17.452-31.433-36.229-43.754-53.76-12.22-17.194-20.169-34.622-24.182-52.899-3.727-18.113-3.262-36.437 1.689-53.513 4.982-17.040 14.387-32.621 26.702-44.912 24.72-25.045 60.449-34.373 92.777-26.46 32.694 7.609 61.959 30.125 83.867 56.011 2.639 3.189 5.244 6.366 7.811 9.49 2.807 3.535 5.984 7.386 7.944 10.199 4.48 5.846 8.876 12.758 12.756 19.029 7.419 12.883 12.697 25.92 14.645 38.336 2.077 12.388 1.564 24.196-1.827 34.569-3.298 10.428-9.328 19.089-16.102 26.039-13.821 14.019-30.425 19.633-41.426 22.361-11.289 2.538-17.725 2.849-17.725 2.849s1.542 0.329 4.563 0.974c3.011 0.687 7.574 1.457 13.641 1.762 11.958 0.721 31.13 0.055 52.667-12.477 10.717-6.127 21.298-16.072 29.457-29.499 8.017-13.409 13.415-30.495 13.534-48.562 0.57-18.103-3.264-36.827-9.69-55.162z"></path>
</symbol>
<symbol id="icon-windows" viewBox="0 0 1024 1024">
	<title>windows</title>
	<path class="path1" d="M0.375 477.867l-0.373-332.879 409.6-55.62v388.499h-409.227zM477.869 79.447l545.997-79.447v477.867h-545.997v-398.419zM1023.998 546.133l-0.132 477.867-545.997-76.817v-401.050h546.129zM409.602 938.492l-409.267-56.1-0.021-336.258h409.289v392.358z"></path>
</symbol>
<symbol id="icon-osx2" viewBox="0 0 1024 1024">
	<title>excel</title>
	<path class="path1" d="M511.857 1024c-0.017 0-0.025 0-0.043 0-125.34-0.010-246.023-45.89-339.816-129.192-211.076-187.466-230.277-511.713-42.807-722.804 97.088-109.312 236.681-172.004 382.991-172.004 125.33 0 246.011 45.88 339.811 129.187 211.084 187.473 230.294 511.723 42.821 722.807-97.086 109.31-236.674 172.006-382.956 172.006zM512.181 13.416c-142.479 0-278.416 61.047-372.957 167.495-182.559 205.557-163.858 521.31 41.682 703.862 91.333 81.12 208.851 125.798 330.907 125.812 0.008 0 0.033 0 0.040 0 142.463 0.003 278.376-61.044 372.923-167.495 182.557-205.555 163.851-521.308-41.702-703.869-91.335-81.128-208.851-125.805-330.893-125.805z"></path>
	<path class="path2" d="M357.631 828.438c-4.852 0-9.829-0.396-14.796-1.186-12.558-1.878-29.771-8.166-40.344-20.134-24.312-25.364-24.384-49.812-20.159-65.872 3.818-14.5 12.306-25.237 12.669-25.687 1.124-1.428 114.916-145.525 127.24-166.78 10.734-18.502 24.021-28.65 35.713-34.203-11.692-5.552-24.976-15.701-35.71-34.201-12.327-21.255-126.12-165.351-127.267-166.806-0.338-0.425-8.825-11.163-12.644-25.668-4.407-16.759-4.054-42.225 22.641-68.371 9.051-8.484 28.162-18.273 52.574-18.273 17.034 0 42.075 4.947 64.633 28.518l0.534 0.634 114.287 153.517 90.034-114.953c0.329-0.426 8.476-10.752 23.727-19.071 5.22-3.775 22.232-14.535 46.211-14.535 10.918 0 21.962 2.219 32.811 6.598 21.252 8.573 36.104 26.56 40.745 49.347 4.368 21.442-1.136 43.625-14.020 56.511-21.263 21.26-110.904 137.902-114.856 143.051-1.41 2.069-10.939 15.413-27.936 23.703 16.994 8.29 26.526 21.633 27.936 23.703 3.94 5.133 93.592 121.785 114.856 143.043 12.884 12.889 18.385 35.074 14.020 56.513-4.641 22.787-19.494 40.775-40.745 49.358-10.847 4.375-21.884 6.593-32.793 6.593h-0.010c-28.97-0.003-47.502-15.47-48.276-16.131l-0.789-0.793-110.877-131.679-114.321 153.562c-1.024 1.316-23.565 29.689-65.088 29.689zM485.209 521.331c-5.265 0-32.492 1.646-51.364 34.181-12.802 22.078-123.628 162.425-128.341 168.39-0.084 0.105-7.125 9.095-10.197 20.758-4.883 18.557 0.825 36.479 16.958 53.269l0.207 0.226c7.658 8.735 21.793 14.251 32.403 15.843 4.328 0.686 8.6 1.029 12.752 1.029 35.036 0 54.222-24.155 54.409-24.401l124.352-167.037 121.362 144.133c2.472 1.908 17.388 12.647 39.23 12.65h0.005c9.183 0 18.525-1.893 27.772-5.621 23.28-9.394 30.432-28.836 32.622-39.59 3.442-16.89-0.726-34.71-10.356-44.351-22.253-22.245-112.315-139.547-116.139-144.528l-0.286-0.4c-0.147-0.221-16.206-23.857-44.293-24.528l-3.151-0.065-0.032-13.415 3.188-0.070c28.291-0.671 44.132-24.289 44.284-24.528l0.286-0.4c3.823-4.982 93.889-122.288 116.139-144.535 9.637-9.637 13.801-27.458 10.356-44.344-2.191-10.752-9.342-30.192-32.622-39.581-9.249-3.735-18.601-5.628-27.791-5.628-20.517 0-34.751 9.336-38.63 12.199l-0.804 0.51c-12.893 6.944-19.87 15.674-19.942 15.759l-91.106 116.314-10.101 12.003-124.178-166.815c-19.21-19.897-40.312-24.085-54.66-24.085-19.183 0-35.568 7.303-43.296 14.547-17.627 17.27-24.039 35.897-18.947 55.27 3.072 11.675 10.113 20.661 10.183 20.75 4.726 5.981 115.551 146.329 128.357 168.409 18.867 32.53 46.097 34.181 51.36 34.181 0.338 0 0.549-0.008 0.617-0.012l0.209-0.010 7.089 0.070-0.003 13.415-7.086 0.072-0.246-0.018c-0.023-0.010-0.236-0.017-0.574-0.017z"></path>
</symbol>
<symbol id="icon-osx" viewBox="0 0 1024 1024">
	<title>osx2</title>
	<path class="path1" d="M851.991 129.187c-93.8-83.307-214.481-129.187-339.813-129.187-146.311 0-285.903 62.693-382.988 172.004-187.469 211.089-168.268 535.338 42.807 722.804 93.79 83.302 214.476 129.182 339.816 129.192 0.018 0 0.027 0 0.043 0 146.284 0 285.872-62.696 382.96-172.011 187.468-211.079 168.256-535.33-42.826-722.802zM641.653 538.278c3.94 5.134 93.592 121.786 114.856 143.045 12.884 12.889 18.388 35.074 14.020 56.513-4.641 22.787-19.494 40.775-40.749 49.358-10.846 4.375-21.882 6.593-32.793 6.593h-0.010c-28.97-0.003-47.5-15.47-48.276-16.131l-0.788-0.793-110.879-131.679-114.322 153.567c-1.022 1.316-23.56 29.692-65.086 29.692-4.852 0-9.829-0.396-14.796-1.186-12.558-1.881-29.771-8.17-40.344-20.133-24.312-25.364-24.384-49.813-20.159-65.874 3.818-14.5 12.306-25.24 12.667-25.689 1.124-1.427 114.916-145.523 127.242-166.778 10.732-18.502 24.021-28.654 35.713-34.203-11.689-5.551-24.976-15.701-35.71-34.203-12.327-21.253-126.12-165.351-127.267-166.806-0.338-0.423-8.825-11.162-12.644-25.668-4.407-16.759-4.054-42.225 22.641-68.371 9.056-8.493 28.167-18.285 52.58-18.285 17.034 0 42.075 4.947 64.633 28.518l0.534 0.632 114.289 153.519 90.034-114.954c0.329-0.426 8.474-10.752 23.727-19.071 5.22-3.775 22.232-14.535 46.209-14.535 10.918 0 21.962 2.219 32.811 6.598 21.253 8.573 36.104 26.56 40.749 49.345 4.368 21.442-1.136 43.625-14.020 56.511-21.263 21.26-110.902 137.902-114.856 143.051-1.41 2.069-10.939 15.413-27.935 23.703 16.987 8.299 26.521 21.638 27.93 23.71z"></path>
	<path class="path2" d="M757.378 293.988c-2.189-10.752-9.341-30.192-32.621-39.581-9.249-3.735-18.601-5.626-27.787-5.626-20.517 0-34.753 9.336-38.63 12.197l-0.803 0.51c-12.896 6.944-19.872 15.672-19.945 15.761l-91.104 116.314-10.103 12.003-124.178-166.811c-19.213-19.897-40.312-24.088-54.66-24.088-19.183 0-35.568 7.303-43.296 14.547-17.627 17.27-24.039 35.897-18.947 55.27 3.072 11.675 10.113 20.661 10.183 20.746 4.726 5.982 115.551 146.331 128.357 168.409 18.867 32.53 46.097 34.181 51.36 34.181 0.338 0 0.549-0.008 0.617-0.010l0.209-0.010 7.089 0.070-0.003 13.418-7.086 0.069-0.246-0.018c-0.032 0-0.244-0.007-0.582-0.007-5.265 0-32.492 1.646-51.364 34.181-12.802 22.078-123.628 162.425-128.341 168.39-0.084 0.105-7.125 9.095-10.197 20.758-4.883 18.557 0.825 36.477 16.958 53.267l0.207 0.227c7.658 8.735 21.793 14.251 32.403 15.843 4.328 0.686 8.6 1.029 12.751 1.029 35.036 0 54.222-24.155 54.411-24.401l124.352-167.037 121.36 144.133c2.472 1.908 17.388 12.647 39.23 12.649h0.005c9.183 0 18.527-1.892 27.772-5.619 23.282-9.394 30.432-28.836 32.622-39.59 3.442-16.89-0.726-34.71-10.356-44.351-22.252-22.245-112.315-139.547-116.139-144.528l-0.284-0.401c-0.149-0.219-16.208-23.856-44.294-24.528l-3.149-0.064-0.033-13.415 3.186-0.070c28.289-0.671 44.132-24.289 44.284-24.528l0.284-0.4c3.823-4.982 93.89-122.288 116.14-144.535 9.645-9.645 13.808-27.468 10.364-44.354z"></path>
</symbol>
<symbol id="icon-linux" viewBox="0 0 1024 1024">
	<title>linux</title>
	<path class="path1" d="M925.789 835.274c-27.067-11.107-49.368-28.597-47.75-62.092 1.574-33.451-23.919-55.621-23.919-55.621s22.301-73.243 1.574-133.717c-20.683-60.562-89.116-157.592-141.632-230.791-52.429-73.243-7.915-157.636-55.621-265.817-47.794-108.181-171.891-101.84-238.75-55.665-66.902 46.088-46.219 160.653-43.071 214.875 3.192 54.047 1.443 92.57-4.723 106.563-6.297 13.993-49.324 65.328-78.009 108.268-28.641 42.94-49.324 132.099-70.094 168.699-20.683 36.6-6.34 70.007-6.34 70.007s-14.342 4.723-25.493 28.729c-11.15 23.788-33.407 34.938-73.199 42.809-39.792 7.958-39.792 33.539-30.259 62.18 9.576 28.597 0.044 44.602-11.107 81.114s44.558 47.75 98.648 54.003c54.134 6.428 114.609 41.453 165.594 47.794 50.855 6.384 66.815-34.982 66.815-34.982s57.282-12.812 117.713-14.299c60.518-1.618 117.713 12.725 117.713 12.725s11.15 25.449 31.833 36.556c20.727 11.15 65.284 12.768 93.926-17.403 28.685-30.303 105.076-68.433 148.016-92.352 43.071-23.962 35.2-60.518 8.133-71.581zM553.322 133.411c27.286 0 49.324 27.067 49.324 60.431 0 23.7-11.063 44.121-27.198 54.047-4.11-1.793-8.439-3.629-13.031-5.597 9.707-4.81 16.616-17.185 16.616-31.615 0-18.803-11.631-34.063-26.018-34.063-14.211 0-25.886 15.304-25.886 34.063 0 6.953 1.662 13.643 4.504 19.109-8.483-3.367-16.31-6.515-22.432-8.833-3.323-8.133-5.204-17.316-5.204-27.111 0-33.364 22.038-60.431 49.324-60.431zM549.78 260.832c13.643 4.723 28.816 13.599 27.242 22.388-1.618 8.833-8.789 8.833-27.242 20.114-18.497 11.194-58.551 36.031-71.363 37.649-12.899 1.618-20.071-5.597-33.714-14.386-13.643-8.833-39.311-29.778-32.839-40.929 0 0 19.983-15.304 28.772-23.307 8.833-8.046 31.309-27.242 44.951-24.75 13.643 2.318 50.548 18.409 64.191 23.219zM426.776 142.987c21.514 0 39.005 25.624 39.005 57.239 0 5.816-0.568 11.194-1.662 16.398-5.247 1.793-10.582 4.679-15.742 9.051-2.624 2.143-4.941 4.154-7.171 6.166 3.411-6.384 4.766-15.479 3.236-25.056-2.886-17.272-14.386-29.866-25.799-28.073-11.369 1.968-18.234 17.491-15.348 34.85 2.93 17.36 14.386 29.953 25.755 28.073 0.656-0.131 1.268-0.306 1.924-0.525-5.553 5.335-10.669 9.926-15.873 13.818-15.742-7.302-27.286-29.035-27.286-54.746 0-31.615 17.447-57.195 38.961-57.195zM384.754 947.172c-5.072 22.826-31.79 39.398-31.79 39.398-24.225 7.609-91.564-21.601-122.086-34.413-30.478-12.637-108.093-16.573-118.282-27.854-10.101-11.544 5.072-36.949 8.964-61.043 3.761-24.269-7.609-39.442-3.848-56.014 3.848-16.485 53.434-16.485 72.456-27.898 19.109-11.5 22.913-44.558 38.174-53.434 15.261-8.964 43.202 22.826 54.659 40.71 11.413 17.709 54.659 94.057 72.456 113.122 17.841 19.065 34.369 44.602 29.297 67.427zM666.225 725.388c-4.591 22.432-4.591 103.502-4.591 103.502s-49.324 68.345-125.803 79.539c-76.391 11.194-114.609 3.148-114.609 3.148l-42.94-49.28c0 0 33.364-4.854 28.641-38.261-4.81-33.407-101.84-79.583-119.375-120.993-17.447-41.322-3.148-111.417 19.152-146.442 22.257-34.982 36.512-111.329 58.813-136.866 22.301-25.362 39.748-79.496 31.79-103.414 0 0 47.75 57.326 81.114 47.837 33.407-9.576 108.312-65.328 119.375-55.708 11.107 9.576 106.607 219.597 116.095 286.456 9.576 66.815-6.384 117.713-6.384 117.713s-36.556-9.532-41.278 12.768zM910.485 875.328c-14.867 13.643-97.599 47.050-122.392 73.112-24.662 25.843-56.889 46.875-76.61 40.754-19.852-6.253-37.124-33.407-28.466-73.024 8.614-39.486 16.092-82.775 14.867-107.525s-6.253-58.201 0-63.142c6.166-4.81 16.004-2.405 16.004-2.405s-4.854 46.919 23.525 59.381c28.379 12.244 69.22-4.941 81.595-17.403 12.418-12.287 21.076-30.828 21.076-30.828s12.331 6.253 11.107 25.974c-1.224 19.765 8.614 48.275 27.242 58.113 18.497 9.751 46.919 23.438 32.052 36.993z"></path>
</symbol>
<symbol id="icon-apple" viewBox="0 0 1024 1024">
	<title>apple</title>
	<path class="path1" d="M791.496 544.092c-1.292-129.682 105.76-191.876 110.542-194.966-60.15-88.020-153.85-100.078-187.24-101.472-79.742-8.074-155.596 46.948-196.066 46.948-40.368 0-102.818-45.754-168.952-44.552-86.916 1.292-167.058 50.538-211.812 128.38-90.304 156.7-23.126 388.84 64.89 515.926 43.008 62.208 94.292 132.076 161.626 129.58 64.842-2.588 89.362-41.958 167.756-41.958 78.392 0 100.43 41.958 169.048 40.67 69.776-1.296 113.982-63.398 156.694-125.796 49.388-72.168 69.724-142.038 70.924-145.624-1.55-0.708-136.062-52.238-137.41-207.136zM662.56 163.522c35.738-43.358 59.86-103.512 53.28-163.522-51.478 2.096-113.876 34.29-150.81 77.55-33.14 38.376-62.15 99.626-54.376 158.436 57.468 4.484 116.13-29.204 151.906-72.464z"></path>
</symbol>
<symbol id="icon-android" viewBox="0 0 1024 1024">
	<title>android</title>
	<path class="path1" d="M138.965 333.9h-2.624c-33.626 0-61.043 27.504-61.043 61.043v265.773c0 33.67 27.417 61.087 61.043 61.087h2.667c33.626 0 61.043-27.504 61.043-61.087v-265.773c-0.044-33.539-27.504-61.043-61.087-61.043z"></path>
	<path class="path2" d="M229.261 763.299c0 30.871 25.231 56.014 56.102 56.014h59.95v143.556c0 33.714 27.504 61.13 61.043 61.13h2.624c33.67 0 61.13-27.461 61.13-61.13v-143.556h83.781v143.556c0 33.714 27.592 61.13 61.13 61.13h2.58c33.67 0 61.087-27.461 61.087-61.13v-143.556h59.994c30.828 0 56.058-25.143 56.058-56.014v-419.648h-565.478v419.648z"></path>
	<path class="path3" d="M652.845 89.159l47.619-73.505c3.061-4.635 1.705-10.975-2.973-13.993-4.635-3.061-10.975-1.793-13.993 2.973l-49.368 76.041c-37.037-15.173-78.403-23.7-122.086-23.7-43.727 0-85.005 8.527-122.13 23.7l-49.28-76.041c-3.017-4.766-9.401-6.034-14.080-2.973-4.679 3.017-6.034 9.358-2.973 13.993l47.662 73.505c-85.924 42.109-143.862 121.474-143.862 212.513 0 5.597 0.35 11.107 0.831 16.573h567.708c0.481-5.466 0.787-10.975 0.787-16.573 0-91.040-57.982-170.404-143.862-212.513zM380.425 220.778c-15.086 0-27.329-12.156-27.329-27.286s12.244-27.242 27.329-27.242c15.173 0 27.329 12.112 27.329 27.242s-12.244 27.286-27.329 27.286zM643.618 220.778c-15.086 0-27.329-12.156-27.329-27.286s12.244-27.242 27.329-27.242c15.13 0 27.286 12.112 27.286 27.242s-12.156 27.286-27.286 27.286z"></path>
	<path class="path4" d="M887.659 333.9h-2.536c-33.626 0-61.13 27.504-61.13 61.043v265.773c0 33.67 27.548 61.087 61.13 61.087h2.58c33.67 0 61.043-27.504 61.043-61.087v-265.773c0-33.539-27.461-61.043-61.087-61.043z"></path>
</symbol>
<symbol id="icon-screen" viewBox="0 0 1024 1024">
	<title>screen</title>
	<path class="path1" d="M968.393 86.148v-1.498h-913.288v1.498c-29.552 2.031-51.6 25.543-55.105 54.080v600.221c0 11.542 3.003 21.27 8.016 30.032 11.533 20.308 28.558 30.568 52.104 30.568h329.641v83.15h-62.62c-15.529 0-27.553 12.077-27.553 27.574s12.024 27.573 27.553 27.573h369.219c15.529 0 28.056-12.077 28.056-27.573 0-15.499-12.526-27.574-28.056-27.574h-62.62v-83.15h329.639c23.555 0 40.731-10.26 52.104-30.568 5.162-9.191 8.518-19.024 8.518-30.032v-600.22c-3.507-28.538-27.052-52.050-55.609-54.081zM968.393 145.252v595.198c0 3.527-1.498 5.023-5.013 5.023h-903.262c-3.505 0-5.013-1.496-5.013-5.023v-600.221h913.286v5.023z"></path>
</symbol>
<symbol id="icon-ipad" viewBox="0 0 1024 1024">
	<title>ipad</title>
	<path class="path1" d="M817.085 0h-610.231c-38.467 0-69.433 31.117-69.433 69.554v884.922c0 38.316 30.966 69.524 69.433 69.524h610.231c38.347 0 69.464-31.177 69.464-69.524v-884.922c0.060-38.437-31.087-69.554-69.464-69.554zM512 997.944c-22.833 0-41.299-18.465-41.299-41.268 0-22.833 18.465-41.329 41.299-41.329 22.773 0 41.299 18.495 41.299 41.329 0 22.803-18.526 41.268-41.299 41.268zM816.272 879.169h-608.544v-795.608h608.544v795.608z"></path>
</symbol>
<symbol id="icon-smartphone" viewBox="0 0 1024 1024">
	<title>smartphone</title>
	<path class="path1" d="M740.264 0h-456.528c-38.034 0-69.164 31.1-69.164 69.164v885.643c0 38.064 31.13 69.193 69.164 69.193h456.528c38.034 0 69.164-31.071 69.164-69.164v-885.672c0-38.064-31.13-69.164-69.164-69.164zM438.974 49.854h146.052c4.623 0 8.368 3.745 8.368 8.397 0 4.623-3.745 8.368-8.368 8.368h-146.052c-4.623 0-8.368-3.745-8.368-8.368 0-4.652 3.745-8.397 8.368-8.397zM512 989.418c-19.105 0-34.582-15.477-34.582-34.611s15.477-34.582 34.582-34.582 34.582 15.448 34.582 34.582-15.477 34.611-34.582 34.611zM761.3 896h-498.6v-786.315h498.6v786.315z"></path>
</symbol>
<symbol id="icon-contacts" viewBox="0 0 1024 1024">
	<title>contacts</title>
	<path class="path1" d="M968 227.2v-91.2c0-13.6-10.4-24-24-24h-40v-80c0-17.6-14.4-32-32-32h-744c-17.6 0-32 14.4-32 32v232h-32c-8.8 0-16 7.2-16 16s7.2 16 16 16h96c8.8 0 16-7.2 16-16s-7.2-16-16-16h-32v-224h8v219.2c5.6-6.4 14.4-11.2 24-11.2 17.6 0 32 14.4 32 32 0 16-11.2 28.8-26.4 31.2-1.6 0.8-3.2 0.8-5.6 0.8h-24v379.2c5.6-6.4 14.4-11.2 24-11.2 17.6 0 32 14.4 32 32 0 16-11.2 28.8-26.4 31.2-1.6 0.8-3.2 0.8-5.6 0.8h-24v232h-8v-232h-32v248c0 17.6 14.4 32 32 32h744c17.6 0 32-14.4 32-32v-72h40c13.6 0 24-10.4 24-24v-88c0-13.6-10.4-24-24-24h-40v-96h40c4.8 0 8 3.2 8 8v80.8c6.4 1.6 12 4.8 16 9.6v-90.4c0-13.6-10.4-24-24-24h-40v-96h40c4.8 0 8 3.2 8 8v80.8c6.4 1.6 12 4.8 16 9.6v-90.4c0-13.6-10.4-24-24-24h-40v-96h40c4.8 0 8 3.2 8 8v80.8c6.4 1.6 12 4.8 16 9.6v-90.4c0-13.6-10.4-24-24-24h-40v-96h40c4.8 0 8 3.2 8 8v80.8c6.4 1.6 12 4.8 16 9.6v-90.4c0-13.6-10.4-24-24-24h-40v-96h40c4.8 0 8 3.2 8 8v80.8c6.4 1.6 12 4.8 16 9.6v-90.4c0-13.6-10.4-24-24-24h-40v-96h40c4.8 0 8 3.2 8 8v80.8c6.4 1.6 12 5.6 16 10.4zM520 752c-132.8 0-240-107.2-240-240s107.2-240 240-240 240 107.2 240 240c0 132.8-107.2 240-240 240zM944 800c4.8 0 8 3.2 8 8v88c0 4.8-3.2 8-8 8h-40v-104h40zM651.2 643.2h-262.4c0-75.2 55.2-81.6 85.6-96 8.8-4.8 13.6-12 13.6-17.6v-17.6c0 0-13.6-13.6-16.8-36.8 0 0-9.6 0.8-12.8-20.8-0.8-8 3.2-10.4 4.8-11.2-18.4-47.2-1.6-94.4 56-94.4 15.2 0 30.4 7.2 35.2 18.4 32.8 0 27.2 47.2 20.8 75.2 0 0 0 0.8 0 0.8s8.8 0 5.6 13.6c-4 17.6-12 18.4-12 18.4-4 22.4-16.8 36.8-16.8 36.8v16.8c0 7.2 4.8 12.8 13.6 17.6 32.8 16.8 85.6 19.2 85.6 96.8zM96 728h-32c-8.8 0-16-7.2-16-16s7.2-16 16-16h32v-384h32v384h32c8.8 0 16 7.2 16 16s-7.2 16-16 16h-64zM520 284c-125.6 0-228 102.4-228 228s102.4 228 228 228 228-102.4 228-228-102.4-228-228-228zM520 724c-116.8 0-212-95.2-212-212s95.2-212 212-212 212 95.2 212 212-95.2 212-212 212z"></path>
</symbol>
<symbol id="icon-coins" viewBox="0 0 1024 1024">
	<title>coins</title>
	<path class="path1" d="M228.8 616.8c1.6 0 4 0 5.6 0 4 0 6.4 0 8.8-0.8s4-1.6 4-3.2c0-0.8-0.8-1.6-2.4-2.4-1.6 0-3.2-0.8-5.6-0.8v-1.6h52v1.6c-2.4 0-4.8 0.8-6.4 0.8s-2.4 0.8-2.4 1.6v52c0 1.6 0.8 2.4 2.4 2.4 1.6 0.8 4 0.8 5.6 0.8v1.6h-53.6v-1.6c2.4 0 4 0 5.6-0.8s2.4-1.6 2.4-2.4v-37.6c-1.6 0-3.2 0-5.6 0s-4 0-5.6 0c-1.6 0-4 0.8-5.6 0.8s-2.4 0.8-3.2 1.6h-4v-14.4h4c1.6 1.6 2.4 1.6 4 2.4zM316.8 639.2c0-4.8 2.4-8.8 7.2-12 4.8-4 11.2-7.2 19.2-9.6s17.6-4.8 28.8-6.4c11.2-1.6 22.4-2.4 35.2-2.4s24 0.8 35.2 2.4c11.2 1.6 20 4 28 6.4s14.4 5.6 19.2 9.6c4.8 4 7.2 8 7.2 12 0 4.8-2.4 8.8-7.2 12-4.8 4-11.2 7.2-19.2 9.6s-17.6 4.8-28 6.4c-11.2 1.6-22.4 2.4-35.2 2.4s-24-0.8-35.2-2.4c-11.2-1.6-20-3.2-28.8-6.4s-14.4-5.6-19.2-9.6c-5.6-3.2-7.2-7.2-7.2-12zM353.6 639.2c0 3.2 1.6 5.6 4 8s6.4 4.8 11.2 6.4c4.8 1.6 10.4 3.2 16.8 4s13.6 1.6 20.8 1.6c7.2 0 14.4-0.8 20.8-1.6s12-2.4 16.8-4 8-4 11.2-6.4c2.4-2.4 4-5.6 4-8 0-3.2-1.6-5.6-4-8s-6.4-4.8-11.2-6.4-10.4-3.2-16.8-4c-6.4-0.8-13.6-1.6-20.8-1.6s-14.4 0.8-20.8 1.6c-6.4 0.8-12 2.4-16.8 4s-8 4-11.2 6.4c-3.2 2.4-4 5.6-4 8zM384 128c0-46.4 104-96 296-96s296 49.6 296 96-104 96-296 96-296-49.6-296-96zM400 128c0 37.6 115.2 80 280 80s280-42.4 280-80-115.2-80-280-80-280 42.4-280 80zM592.8 200h2.4c0 0 0 0 0 0 2.4 0 4-1.6 4-4s-1.6-4-4-4h-1.6c-2.4 0-4 1.6-4 3.2s0.8 4.8 3.2 4.8zM557.6 195.2h1.6c0 0 0 0 0.8 0 1.6 0 4-1.6 4-3.2 0-2.4-0.8-4-3.2-4.8h-1.6c-2.4 0-4 0.8-4.8 3.2s0.8 4.8 3.2 4.8zM559.2 76c0 0 0.8 0 0 0h2.4c2.4 0 4-2.4 3.2-4.8 0-2.4-2.4-4-4.8-3.2h-1.6c-2.4 0-4 2.4-3.2 4.8 0 2.4 2.4 3.2 4 3.2zM575.2 197.6h2.4c0 0 0 0 0.8 0 1.6 0 4-1.6 4-3.2 0-2.4-1.6-4-3.2-4.8h-1.6c-2.4 0-4 1.6-4.8 3.2-1.6 2.4 0 4.8 2.4 4.8zM576.8 73.6c0 0 0.8 0 0 0h2.4c2.4 0 4-2.4 3.2-4.8 0-2.4-2.4-4-4.8-3.2h-1.6c-2.4 0-4 2.4-3.2 4.8s2.4 3.2 4 3.2zM594.4 72c0.8 0 0.8 0 0 0h2.4c2.4 0 4-2.4 4-4 0-2.4-2.4-4-4-4h-1.6c-2.4 0-4 2.4-4 4 0 2.4 1.6 4 3.2 4zM701.6 68h1.6c0 0 0 0 0 0 2.4 0 4-1.6 4-4s-1.6-4-4-4h-2.4c-2.4 0-4 1.6-4 4s2.4 4 4.8 4zM612.8 70.4c0 0 0 0 0 0h2.4c2.4 0 4-2.4 4-4 0-2.4-2.4-4-4-4h-1.6c-2.4 0-4 2.4-4 4-0.8 2.4 0.8 4 3.2 4zM684 68h1.6c0 0 0 0 0 0 2.4 0 4-1.6 4-4s-1.6-4-4-4h-1.6c0 0 0 0 0 0-2.4 0-4 1.6-4 4s1.6 4 4 4zM719.2 68.8h1.6c0 0 0 0 0 0 2.4 0 4-1.6 4-4s-1.6-4-4-4h-2.4c-2.4 0-4 1.6-4 4 1.6 2.4 3.2 4 4.8 4zM630.4 69.6c0 0 0 0 0 0h2.4c2.4 0 4-1.6 4-4s-1.6-4-4-4h-1.6c-2.4 0-4 2.4-4 4-0.8 2.4 0.8 4 3.2 4zM666.4 68c0 0 0 0 0 0h2.4c1.6 0 3.2-1.6 3.2-4s-1.6-4-4-4c0 0 0 0 0 0h-1.6c-2.4 0-4 1.6-4 4s1.6 4 4 4zM648 68.8c0 0 0 0 0 0h2.4c2.4 0 4-1.6 4-4s-1.6-4-4-4h-2.4c-2.4 0-4 1.6-4 4s2.4 4 4 4zM524 82.4c0 0 0.8 0 0.8 0l1.6-0.8c2.4-0.8 3.2-2.4 3.2-4.8-0.8-2.4-2.4-3.2-4.8-3.2l-1.6 0.8c-2.4 0.8-3.2 3.2-3.2 4.8 0.8 2.4 2.4 3.2 4 3.2zM456 104.8c0.8 0 1.6 0 1.6-0.8l1.6-0.8c1.6-0.8 2.4-3.2 1.6-5.6 0-1.6-2.4-2.4-4.8-1.6l-1.6 0.8c-1.6 0.8-2.4 3.2-1.6 5.6 0.8 1.6 2.4 2.4 3.2 2.4zM452.8 166.4l1.6 0.8c0.8 0 1.6 0.8 1.6 0.8 1.6 0 3.2-0.8 3.2-2.4 0.8-1.6 0-4-1.6-5.6l-1.6-0.8c-1.6-0.8-4 0-5.6 1.6 0 1.6 0.8 4 2.4 5.6zM469.6 173.6l1.6 0.8c0.8 0 0.8 0 1.6 0 1.6 0 3.2-0.8 4-2.4 0.8-2.4 0-4-2.4-4.8l-1.6-0.8c-2.4-0.8-4 0-4.8 2.4-1.6 1.6 0 4 1.6 4.8zM440.8 114.4c0.8 0 1.6 0 2.4-0.8l1.6-0.8c1.6-1.6 2.4-4 0.8-5.6s-4-2.4-5.6-0.8l-1.6 1.6c-1.6 1.6-2.4 4-0.8 5.6 1.6 0 2.4 0.8 3.2 0.8zM439.2 157.6c0.8 0.8 1.6 0.8 2.4 0.8s2.4-0.8 3.2-1.6c1.6-1.6 0.8-4-0.8-5.6l-1.6-0.8c-1.6-1.6-4-0.8-5.6 0.8s-0.8 4 0.8 5.6l1.6 0.8zM472.8 97.6c0.8 0 0.8 0 1.6 0l1.6-0.8c2.4-0.8 3.2-3.2 2.4-4.8s-3.2-3.2-4.8-2.4l-1.6 0.8c-2.4 0.8-3.2 3.2-2.4 4.8 0 1.6 1.6 2.4 3.2 2.4zM426.4 142.4c0.8 1.6 2.4 2.4 4 2.4 0.8 0 0.8 0 1.6 0 1.6-0.8 3.2-3.2 1.6-5.6 0-0.8-0.8-0.8-0.8-1.6-0.8-2.4-3.2-3.2-4.8-2.4-2.4 0.8-3.2 3.2-2.4 4.8 0 0.8 0.8 1.6 0.8 2.4zM539.2 192.8h1.6c0 0 0.8 0 0.8 0 1.6 0 3.2-1.6 4-3.2 0-2.4-0.8-4-3.2-4.8h-1.6c-2.4 0-4 0.8-4.8 3.2 0 2.4 1.6 4 3.2 4.8zM521.6 188.8l1.6 0.8c0 0 0.8 0 0.8 0 1.6 0 3.2-1.6 4-3.2 0.8-2.4-0.8-4-3.2-4.8l-1.6-0.8c-2.4-0.8-4 0.8-4.8 3.2 0 2.4 1.6 4.8 3.2 4.8zM737.6 69.6h1.6c0 0 0 0 0 0 2.4 0 4-1.6 4-4s-1.6-4-4-4h-1.6c-2.4 0-4 1.6-4 4s1.6 4 4 4zM541.6 79.2c0 0 0.8 0 0 0l2.4-0.8c2.4 0 4-2.4 3.2-4.8 0-2.4-2.4-4-4.8-3.2h-1.6c-2.4 0-4 2.4-3.2 4.8s2.4 4 4 4zM487.2 180l1.6 0.8c0 0 0.8 0 0.8 0 1.6 0 3.2-0.8 4-3.2s-0.8-4-2.4-4.8l-1.6-0.8c-2.4-0.8-4 0.8-4.8 2.4-0.8 2.4 0 4.8 2.4 5.6zM489.6 91.2c0 0 0.8 0 0.8 0l1.6-0.8c2.4-0.8 3.2-3.2 2.4-4.8-0.8-2.4-3.2-3.2-4.8-2.4l-1.6 0.8c-2.4 0.8-3.2 3.2-2.4 4.8s2.4 2.4 4 2.4zM504 184.8l1.6 0.8c0 0 0.8 0 0.8 0 1.6 0 3.2-1.6 4-3.2 0.8-2.4-0.8-4-3.2-4.8l-1.6-0.8c-2.4-0.8-4 0.8-4.8 3.2 0 2.4 1.6 4 3.2 4.8zM506.4 86.4c0 0 0.8 0 0.8 0l1.6-0.8c2.4-0.8 3.2-2.4 3.2-4.8-0.8-2.4-2.4-3.2-4.8-3.2l-1.6 0.8c-2.4 0.8-3.2 2.4-3.2 4.8 0.8 2.4 2.4 3.2 4 3.2zM789.6 197.6c0 0 0 0 0 0h2.4c2.4 0 4-2.4 3.2-4.8 0-2.4-2.4-4-4.8-3.2h-1.6c-2.4 0-4 2.4-3.2 4.8 0 1.6 2.4 3.2 4 3.2zM756 192.8h-1.6c-2.4 0-4 2.4-4 4 0 2.4 1.6 4 4 4 0 0 0 0 0 0h1.6c2.4 0 4-2.4 4-4 0-2.4-2.4-4-4-4zM928 132c0 0.8 0 0.8 0 1.6 0 2.4 1.6 4 3.2 4.8 0 0 0 0 0.8 0 2.4 0 4-1.6 4-3.2 0-0.8 0-1.6 0-2.4 0 0 0 0 0 0 0-2.4-1.6-3.2-4-3.2 0 0 0 0 0 0-2.4-1.6-4 0-4 2.4zM773.6 191.2h-1.6c-2.4 0-4 2.4-3.2 4 0 2.4 1.6 3.2 4 3.2 0 0 0 0 0.8 0h1.6c2.4 0 4-2.4 3.2-4.8-0.8-0.8-3.2-2.4-4.8-2.4zM923.2 120c0.8 0.8 1.6 1.6 3.2 1.6 0.8 0 1.6 0 2.4-0.8 1.6-1.6 1.6-4 0.8-5.6-0.8-0.8-0.8-0.8-1.6-1.6-1.6-1.6-4-1.6-5.6 0s-1.6 4 0 5.6c0-0.8 0 0 0.8 0.8zM909.6 164c0.8 0 1.6 0 2.4-0.8l1.6-0.8c1.6-0.8 2.4-4 1.6-5.6s-4-2.4-5.6-1.6l-1.6 0.8c-1.6 0.8-2.4 3.2-1.6 5.6 0.8 1.6 1.6 2.4 3.2 2.4zM924 153.6c0.8 0 2.4-0.8 3.2-1.6s0.8-0.8 1.6-1.6c1.6-1.6 1.6-4 0-5.6s-4-1.6-5.6 0c0 0.8-0.8 0.8-1.6 1.6-1.6 1.6-1.6 4 0 5.6 0 0.8 0.8 1.6 2.4 1.6zM892.8 100l1.6 0.8c0.8 0 0.8 0 1.6 0 1.6 0 3.2-0.8 4-2.4 0.8-2.4 0-4-2.4-5.6l-1.6-0.8c-2.4-0.8-4 0-5.6 2.4 0 2.4 0.8 4.8 2.4 5.6zM908.8 108l1.6 0.8c0.8 0.8 1.6 0.8 2.4 0.8 1.6 0 2.4-0.8 3.2-1.6 0.8-1.6 0.8-4-1.6-5.6l-1.6-0.8c-1.6-0.8-4-0.8-5.6 1.6-0.8 0.8-0.8 4 1.6 4.8zM631.2 194.4h-1.6c-2.4 0-4 1.6-4 4s1.6 4 4 4h2.4c0 0 0 0 0 0 2.4 0 4-1.6 4-4-0.8-1.6-2.4-3.2-4.8-4zM613.6 193.6h-1.6c-2.4 0-4 1.6-4 4s1.6 4 4 4h1.6c0 0 0 0 0 0 2.4 0 4-1.6 4-4 0-1.6-1.6-4-4-4zM648.8 195.2h-1.6c-2.4 0-4 1.6-4 4s1.6 4 4 4h1.6c0 0 0 0 0 0 2.4 0 4-1.6 4-4 0-1.6-1.6-4-4-4zM684.8 196c0 0 0 0 0 0h-1.6c0 0 0 0 0 0-2.4 0-4 1.6-4 4s1.6 4 4 4h2.4c2.4 0 4-1.6 4-4-0.8-2.4-2.4-4-4.8-4zM702.4 196h-1.6c-2.4 0-4 1.6-4 4s1.6 4 4 4c0 0 0 0 0 0h2.4c2.4 0 4-1.6 4-4-0.8-2.4-2.4-4-4.8-4zM666.4 196h-1.6c-2.4 0-4 1.6-4 4s1.6 4 4 4h2.4c0 0 0 0 0 0 2.4 0 4-1.6 4-4-0.8-2.4-2.4-4-4.8-4zM720 195.2h-1.6c-2.4 0-4 1.6-4 4s1.6 4 4 4c0 0 0 0 0 0h1.6c2.4 0 4-1.6 4-4s-1.6-4-4-4zM737.6 194.4h-1.6c-2.4 0-4 2.4-4 4 0 2.4 1.6 4 4 4 0 0 0 0 0 0h2.4c2.4 0 4-2.4 4-4 0-2.4-2.4-4-4.8-4zM755.2 71.2h1.6c0 0 0 0 0 0 2.4 0 4-1.6 4-4s-1.6-4-4-4h-2.4c-1.6 0-4 1.6-4 4 0.8 1.6 2.4 4 4.8 4zM824.8 192c0 0 0.8 0 0 0l2.4-0.8c2.4-0.8 3.2-2.4 3.2-4.8-0.8-2.4-2.4-4-4.8-3.2h-1.6c-2.4 0.8-4 2.4-3.2 4.8s2.4 4 4 4zM807.2 194.4c0 0 0.8 0 0 0h2.4c2.4 0 4-2.4 3.2-4.8 0-2.4-2.4-4-4.8-3.2h-1.6c-2.4 0-4 2.4-3.2 4.8s2.4 3.2 4 3.2zM808 77.6h1.6c0 0 0.8 0 0.8 0 1.6 0 4-1.6 4-3.2 0-2.4-0.8-4-3.2-4.8h-1.6c-2.4 0-4 0.8-4.8 3.2s0.8 4 3.2 4.8zM772.8 72.8h1.6c0 0 0 0 0.8 0 2.4 0 4-1.6 4-3.2 0-2.4-1.6-4-3.2-4.8h-1.6c-2.4 0-4 1.6-4.8 3.2-0.8 2.4 0.8 4.8 3.2 4.8zM790.4 75.2h1.6c0 0 0 0 0.8 0 1.6 0 4-1.6 4-3.2 0-2.4-1.6-4-3.2-4.8h-1.6c-2.4 0-4 1.6-4.8 3.2-0.8 2.4 0.8 4 3.2 4.8zM893.6 172c0.8 0 0.8 0 1.6 0l1.6-0.8c2.4-0.8 3.2-3.2 2.4-5.6s-3.2-3.2-5.6-2.4l-1.6 0.8c-2.4 0.8-3.2 3.2-2.4 5.6 0.8 1.6 2.4 2.4 4 2.4zM428 127.2c0.8 0 0.8 0 1.6 0 1.6 0 3.2-0.8 4-2.4 0-0.8 0.8-0.8 0.8-1.6 0.8-1.6 0-4-1.6-5.6-1.6-0.8-4 0-5.6 1.6 0 0.8-0.8 1.6-0.8 2.4-0.8 2.4 0 4.8 1.6 5.6zM860 88.8l1.6 0.8c0 0 0.8 0 0.8 0 1.6 0 3.2-0.8 4-3.2s-0.8-4-2.4-4.8l-1.6-0.8c-2.4-0.8-4 0.8-4.8 2.4-0.8 2.4 0 4.8 2.4 5.6zM860 184c0 0 0.8 0 0.8 0l1.6-0.8c2.4-0.8 3.2-3.2 2.4-4.8-0.8-2.4-2.4-3.2-4.8-2.4l-1.6 0.8c-2.4 0.8-3.2 2.4-3.2 4.8 0.8 0.8 2.4 2.4 4.8 2.4zM876.8 178.4c0.8 0 0.8 0 1.6 0l1.6-0.8c2.4-0.8 3.2-3.2 2.4-4.8-0.8-2.4-3.2-3.2-4.8-2.4l-1.6 0.8c-2.4 0.8-3.2 3.2-2.4 4.8 0 1.6 1.6 2.4 3.2 2.4zM876.8 93.6l1.6 0.8c0.8 0 0.8 0 1.6 0 1.6 0 3.2-0.8 4-2.4 0.8-2.4 0-4-2.4-4.8l-1.6-0.8c-2.4-0.8-4 0.8-4.8 2.4-1.6 1.6-0.8 4 1.6 4.8zM825.6 80.8h1.6c0 0 0.8 0 0.8 0 1.6 0 3.2-1.6 4-3.2 0.8-2.4-0.8-4-3.2-4.8h-1.6c-2.4-0.8-4 0.8-4.8 3.2s0.8 4 3.2 4.8zM842.4 188c0 0 0.8 0 0.8 0l1.6-0.8c2.4-0.8 3.2-2.4 3.2-4.8-0.8-2.4-2.4-3.2-4.8-3.2l-1.6 0.8c-2.4 0.8-3.2 2.4-3.2 4.8 0.8 1.6 2.4 3.2 4 3.2zM843.2 84l1.6 0.8c0 0 0.8 0 0.8 0 1.6 0 3.2-1.6 4-3.2 0.8-2.4-0.8-4-3.2-4.8l-1.6-0.8c-2.4-0.8-4 0.8-4.8 3.2s0.8 4.8 3.2 4.8zM1024 648c0 70.4-147.2 126.4-336 128v120c0 72-151.2 128-344 128s-344-56-344-128v-256c0-70.4 147.2-126.4 336-128v-384c0-72 151.2-128 344-128s344 56 344 128v520zM352 128c0 60.8 150.4 112 328 112s328-51.2 328-112-150.4-112-328-112c-177.6 0-328 51.2-328 112zM352 167.2v40.8c0 60.8 150.4 112 328 112s328-51.2 328-112v-40.8c-44 52-172 88.8-328 88.8s-284-36.8-328-88.8zM352 512v0c0 0 0 0 0 0s0 0 0 0zM16 640c0 60.8 150.4 112 328 112s328-51.2 328-112-150.4-112-328-112c-177.6 0-328 51.2-328 112zM16 679.2v40.8c0 60.8 150.4 112 328 112s328-51.2 328-112v-40.8c-44 52-172 88.8-328 88.8s-284-36.8-328-88.8zM16 759.2v48.8c0 60.8 150.4 112 328 112s328-51.2 328-112v-48.8c-44 52-172 88.8-328 88.8s-284-36.8-328-88.8zM672 847.2c-44 52-172 88.8-328 88.8s-284-36.8-328-88.8v48.8c0 60.8 150.4 112 328 112s328-51.2 328-112v-48.8zM1008 599.2c-43.2 51.2-168 87.2-320 88.8v32c0 2.4 0 5.6-0.8 8h0.8v32c174.4-1.6 320-52 320-112v-48.8zM1008 511.2c-44 52-172 88.8-328 88.8-3.2 0-5.6 0-8.8 0 11.2 12.8 16.8 26.4 16.8 40v32c174.4-1.6 320-52 320-112v-48.8zM1008 423.2c-44 52-172 88.8-328 88.8s-284-36.8-328-88.8v48.8c0 12.8 7.2 26.4 21.6 38.4 0.8 0.8 0.8 1.6 1.6 1.6 124 4.8 228 32 279.2 72 8.8 0 17.6 0 25.6 0 177.6 0 328-51.2 328-112v-48.8zM1008 335.2c-44 52-172 88.8-328 88.8s-284-36.8-328-88.8v48.8c0 60.8 150.4 112 328 112s328-51.2 328-112v-48.8zM1008 247.2c-44 52-172 88.8-328 88.8s-284-36.8-328-88.8v48.8c0 60.8 150.4 112 328 112s328-51.2 328-112v-48.8zM608 120.8c-0.8 0-3.2 0.8-5.6 1.6l42.4 16 2.4-0.8c-0.8-0.8-0.8-0.8-0.8-1.6 0-1.6 1.6-2.4 4.8-3.2s7.2-1.6 12-1.6c4.8-0.8 8.8-0.8 13.6-0.8s8 0 10.4 0 10.4 0 16 0.8c5.6 0 11.2 0.8 15.2 2.4 4.8 0.8 8.8 2.4 11.2 4 3.2 1.6 4.8 4 4.8 6.4s-1.6 4.8-4.8 6.4c-3.2 1.6-6.4 3.2-11.2 4s-9.6 1.6-15.2 2.4-10.4 0.8-16 0.8c-7.2 0-14.4 0-21.6-0.8s-13.6-1.6-19.2-2.4c-5.6-0.8-10.4-2.4-14.4-3.2s-5.6-2.4-5.6-4c0 0 0-0.8 0-0.8s0-0.8 0-0.8l-2.4-4-27.2 13.6 4 1.6c0.8 0 2.4 0 3.2 0s1.6 0 2.4 0 4 0.8 6.4 1.6c2.4 0.8 8 2.4 16 4 6.4 1.6 13.6 2.4 22.4 3.2s19.2 1.6 32 1.6c9.6 0 20 0 30.4-0.8s20-2.4 28.8-4c8.8-1.6 16-4.8 21.6-7.2 5.6-3.2 8-7.2 8-11.2s-2.4-7.2-7.2-10.4c-4.8-3.2-11.2-4.8-18.4-7.2-8-1.6-16-3.2-25.6-4s-18.4-1.6-27.2-1.6c-9.6 0-18.4 0-27.2 0.8s-16.8 1.6-25.6 2.4v-14.4h102.4c2.4 0 4.8 0 7.2 0.8 2.4 0 3.2 1.6 3.2 2.4h4v-17.6h-4c0 0.8-0.8 1.6-3.2 1.6s-4.8 0-7.2 0h-140v1.6c4 0 6.4 0.8 6.4 2.4v17.6c0 1.6-0.8 2.4-1.6 2.4zM48 640c0-46.4 104-96 296-96s296 49.6 296 96-104 96-296 96-296-49.6-296-96zM64 640c0 37.6 115.2 80 280 80s280-42.4 280-80-115.2-80-280-80-280 42.4-280 80zM120 616.8c0.8 0 1.6 0 1.6-0.8l1.6-0.8c1.6-0.8 2.4-3.2 1.6-5.6s-2.4-2.4-4.8-1.6l-1.6 0.8c-1.6 0.8-2.4 3.2-1.6 5.6 0.8 1.6 2.4 2.4 3.2 2.4zM276.8 582.4c0 0 0 0 0 0h2.4c2.4 0 4-2.4 4-4 0-2.4-2.4-4-4-4h-1.6c-2.4 0-4 2.4-4 4-0.8 2.4 0.8 4 3.2 4zM242.4 702.4h-1.6c-2.4 0-4 1.6-4.8 3.2 0 2.4 1.6 4 3.2 4.8h1.6c0 0 0 0 0.8 0 1.6 0 4-1.6 4-3.2 0-2.4-1.6-4.8-3.2-4.8zM294.4 581.6c0 0 0 0 0 0h2.4c2.4 0 4-2.4 4-4s-2.4-4-4-4h-1.6c-2.4 0-4 2.4-4 4-0.8 2.4 0.8 4 3.2 4zM205.6 591.2c0 0 0.8 0 0 0h2.4c2.4 0 4-2.4 3.2-4.8s-2.4-4-4.8-3.2h-2.4c-2.4 0-4 2.4-3.2 4.8 1.6 1.6 3.2 3.2 4.8 3.2zM221.6 707.2h2.4c0 0 0 0 0.8 0 1.6 0 4-1.6 4-3.2 0-2.4-1.6-4-3.2-4.8h-1.6c-2.4 0-4 0.8-4.8 3.2-1.6 2.4 0 4.8 2.4 4.8zM223.2 588c0 0 0.8 0 0 0h2.4c2.4 0 4-2.4 3.2-4.8s-2.4-4-4.8-3.2h-1.6c-2.4 0-4 2.4-3.2 4.8s2.4 3.2 4 3.2zM240.8 585.6c0 0 0.8 0 0 0h2.4c2.4 0 4-2.4 3.2-4.8 0-2.4-2.4-4-4.8-3.2h-1.6c-2.4 0-4 2.4-3.2 4.8s2.4 3.2 4 3.2zM311.2 715.2h1.6c0 0 0 0 0 0 2.4 0 4-1.6 4-4s-1.6-4-4-4h-1.6c-2.4 0-4 1.6-4 4s1.6 4 4 4zM312 580.8c0 0 0 0 0 0h2.4c2.4 0 4-1.6 4-4s-2.4-4-4-4h-1.6c-2.4 0-4 1.6-4 4-0.8 2.4 1.6 4 3.2 4zM419.2 583.2h1.6c0 0 0 0 0 0 2.4 0 4-1.6 4-4s-1.6-4-4-4h-1.6c-2.4 0-4 1.6-4 4 0 1.6 1.6 4 4 4zM383.2 580.8h2.4c0 0 0 0 0 0 2.4 0 4-1.6 4-4s-1.6-4-4-4h-1.6c-2.4 0-4 1.6-4 4s1.6 4 3.2 4zM401.6 581.6h1.6c0 0 0 0 0 0 2.4 0 4-1.6 4-4s-1.6-4-4-4h-2.4c-2.4 0-4 1.6-4 4 0.8 2.4 2.4 4 4.8 4zM330.4 580c0 0 0 0 0 0h2.4c2.4 0 4-1.6 4-4s-2.4-4-4-4h-1.6c-2.4 0-4 1.6-4 4-0.8 2.4 0.8 4 3.2 4zM365.6 580h1.6c0 0 0 0 0 0 2.4 0 4-1.6 4-4s-1.6-4-4-4h-1.6c-2.4 0-4 1.6-4 4s1.6 4 4 4zM348 580h1.6c0 0 0 0 0 0 2.4 0 4-1.6 4-4s-1.6-4-4-4h-2.4c-2.4 0-4 1.6-4 4s2.4 4 4.8 4zM151.2 692l1.6 0.8c0 0 0.8 0 0.8 0 1.6 0 3.2-0.8 4-3.2s-0.8-4-2.4-4.8l-1.6-0.8c-2.4-0.8-4 0.8-4.8 2.4-0.8 2.4 0 4.8 2.4 5.6zM136.8 609.6c0.8 0 0.8 0 1.6 0l1.6-0.8c2.4-0.8 2.4-3.2 1.6-4.8-0.8-2.4-3.2-3.2-5.6-2.4l-0.8 0.8c-2.4 0.8-3.2 3.2-2.4 4.8s2.4 2.4 4 2.4zM116.8 678.4l1.6 0.8c0.8 0 1.6 0.8 1.6 0.8 1.6 0 3.2-0.8 3.2-2.4 0.8-1.6 0-4-1.6-5.6l-1.6-0.8c-1.6-0.8-4 0-5.6 1.6 0 1.6 0.8 4 2.4 5.6zM133.6 685.6l1.6 0.8c0.8 0 0.8 0 1.6 0 1.6 0 3.2-0.8 4-2.4 0.8-2.4 0-4.8-2.4-5.6l-1.6-0.8c-2.4-0.8-4 0-4.8 2.4s0 4.8 1.6 5.6zM104.8 626.4c0.8 0 1.6 0 2.4-0.8l1.6-0.8c1.6-1.6 2.4-4 0.8-5.6s-4-2.4-5.6-0.8c-0.8 0.8-0.8 0.8-1.6 1.6-1.6 1.6-2.4 4-0.8 5.6 1.6 0 2.4 0.8 3.2 0.8zM90.4 654.4c0.8 1.6 2.4 2.4 4 2.4 0.8 0 0.8 0 1.6 0 1.6-0.8 3.2-3.2 1.6-5.6 0-0.8-0.8-0.8-0.8-1.6-0.8-2.4-3.2-3.2-4.8-2.4-2.4 0.8-3.2 3.2-2.4 4.8 0 1.6 0.8 1.6 0.8 2.4zM103.2 669.6c0.8 0.8 1.6 0.8 2.4 0.8s2.4-0.8 3.2-1.6c1.6-1.6 0.8-4-0.8-5.6l-1.6-0.8c-1.6-1.6-4-1.6-5.6 0.8-1.6 1.6-1.6 4 0.8 5.6l1.6 0.8zM92 639.2c0.8 0 0.8 0 1.6 0 1.6 0 3.2-0.8 4-2.4 0-0.8 0.8-0.8 0.8-1.6 0.8-1.6 0-4-1.6-5.6-1.6-0.8-4 0-5.6 1.6 0 0.8-0.8 1.6-0.8 2.4-0.8 2.4 0 4.8 1.6 5.6zM170.4 598.4c0 0 0.8 0 0.8 0l1.6-0.8c2.4-0.8 3.2-2.4 3.2-4.8-0.8-2.4-2.4-3.2-4.8-3.2l-1.6 0.8c-2.4 0.8-3.2 2.4-3.2 4.8 0.8 2.4 2.4 3.2 4 3.2zM204 704.8h1.6c0 0 0.8 0 0.8 0 1.6 0 3.2-1.6 4-3.2 0-2.4-0.8-4-3.2-4.8h-1.6c-2.4 0-4 0.8-4.8 3.2s0.8 4 3.2 4.8zM185.6 700.8l1.6 0.8c0 0 0.8 0 0.8 0 1.6 0 3.2-1.6 4-3.2 0.8-2.4-0.8-4-3.2-4.8l-1.6-0.8c-2.4-0.8-4 0.8-4.8 3.2s1.6 4.8 3.2 4.8zM188 594.4c0 0 0.8 0 0.8 0l1.6-0.8c2.4-0.8 3.2-2.4 3.2-4.8-0.8-2.4-2.4-3.2-4.8-3.2l-1.6 0.8c-2.4 0.8-3.2 2.4-3.2 4.8 0.8 2.4 2.4 3.2 4 3.2zM168 696.8l1.6 0.8c0 0 0.8 0 0.8 0 1.6 0 3.2-1.6 4-3.2 0.8-2.4-0.8-4-3.2-4.8l-1.6-0.8c-2.4-0.8-4 0.8-4.8 3.2 0 2.4 1.6 4 3.2 4.8zM436.8 584.8h1.6c0 0 0 0 0.8 0 2.4 0 4-1.6 4-3.2 0-2.4-1.6-4-3.2-4.8h-1.6c-2.4 0-4 1.6-4 3.2-1.6 2.4 0 4.8 2.4 4.8zM153.6 603.2c0 0 0.8 0 0.8 0l1.6-0.8c2.4-0.8 3.2-3.2 2.4-4.8-0.8-2.4-3.2-3.2-4.8-2.4l-1.6 0.8c-2.4 0.8-3.2 3.2-2.4 4.8s2.4 2.4 4 2.4zM259.2 584c0 0 0 0 0 0h2.4c2.4 0 4-2.4 3.2-4s-2.4-4-4.8-4h-1.6c-2.4 0-4 2.4-3.2 4 0 2.4 1.6 4 4 4zM420 704.8h-2.4c-2.4 0-4 2.4-4 4 0 2.4 1.6 4 4 4 0 0 0 0 0 0h1.6c2.4 0 4-2.4 4-4 0.8-2.4-1.6-4-3.2-4zM401.6 706.4h-2.4c-2.4 0-4 2.4-4 4 0 2.4 1.6 4 4 4 0 0 0 0 0 0h1.6c2.4 0 4-2.4 4-4 1.6-2.4-0.8-4.8-3.2-4zM384 707.2h-1.6c-2.4 0-4 1.6-4 4s1.6 4 4 4c0 0 0 0 0 0h2.4c2.4 0 4-1.6 4-4-0.8-2.4-2.4-4-4.8-4zM437.6 703.2h-1.6c-2.4 0-4 2.4-3.2 4 0 2.4 1.6 3.2 4 3.2 0 0 0 0 0.8 0h1.6c2.4 0 4-2.4 3.2-4.8-0.8-0.8-2.4-2.4-4.8-2.4zM490.4 695.2l-2.4 0.8c-2.4 0.8-3.2 2.4-3.2 4.8 0 1.6 2.4 3.2 4 3.2 0 0 0.8 0 0.8 0h1.6c2.4-0.8 3.2-2.4 3.2-4.8 0-3.2-2.4-4-4-4zM472.8 698.4h-1.6c-2.4 0-4 2.4-3.2 4.8 0 1.6 2.4 3.2 4 3.2 0 0 0.8 0 0.8 0h1.6c2.4 0 4-2.4 3.2-4.8s-2.4-3.2-4.8-3.2zM592 644c0 0.8 0 0.8 0 1.6 0 2.4 1.6 4 3.2 4.8 0 0 0 0 0.8 0 2.4 0 4-1.6 4-3.2 0-0.8 0-1.6 0-2.4 0 0 0 0 0 0 0-2.4-1.6-3.2-4-3.2-2.4-1.6-4 0-4 2.4zM455.2 700.8h-2.4c-2.4 0-4 2.4-3.2 4.8 0 1.6 1.6 3.2 4 3.2 0 0 0 0 0.8 0h1.6c2.4 0 4-2.4 3.2-4.8 0-1.6-1.6-3.2-4-3.2zM277.6 705.6h-1.6c-2.4 0-4 1.6-4 4s1.6 4 4 4h2.4c0 0 0 0 0 0 2.4 0 4-1.6 4-4-0.8-1.6-2.4-4-4.8-4zM366.4 708h-1.6c-2.4 0-4 1.6-4 4s1.6 4 4 4c0 0 0 0 0 0h1.6c2.4 0 4-1.6 4-4s-2.4-4-4-4zM295.2 706.4h-2.4c-2.4 0-4 1.6-4 4s1.6 4 4 4h1.6c0 0 0 0 0 0 2.4 0 4-1.6 4-4 0.8-1.6-0.8-3.2-3.2-4zM260 704h-1.6c-2.4 0-4 1.6-4 4s1.6 4 4 4h1.6c0 0 0 0 0 0 2.4 0 4-1.6 4-4-0.8-1.6-2.4-4-4-4zM331.2 708h-1.6c-2.4 0-4 1.6-4 4s1.6 4 4 4h2.4c0 0 0 0 0 0 2.4 0 4-1.6 4-4-1.6-2.4-3.2-4-4.8-4zM348.8 708h-2.4c-2.4 0-4 1.6-4 4s1.6 4 4 4c0 0 0 0 0 0h1.6c2.4 0 4-1.6 4-4s-0.8-4-3.2-4zM489.6 592.8h1.6c0 0 0.8 0 0.8 0 1.6 0 3.2-1.6 4-3.2 0.8-2.4-0.8-4-3.2-4.8h-1.6c-2.4-0.8-4 0.8-4.8 3.2s0.8 4 3.2 4.8zM587.2 632c0.8 0.8 1.6 1.6 3.2 1.6 0.8 0 1.6 0 2.4-0.8 1.6-1.6 1.6-4 0.8-5.6-0.8-0.8-0.8-0.8-1.6-1.6-1.6-1.6-4-1.6-5.6 0s-1.6 4 0 5.6c0-0.8 0 0 0.8 0.8zM524 696c0 0 0.8 0 0.8 0l1.6-0.8c2.4-0.8 3.2-3.2 2.4-4.8s-2.4-3.2-4.8-2.4h-1.6c-2.4 0.8-3.2 2.4-3.2 4.8 0.8 1.6 2.4 3.2 4.8 3.2zM524 600.8l1.6 0.8c0 0 0.8 0 0.8 0 1.6 0 3.2-0.8 4-3.2s-0.8-4-2.4-4.8l-1.6-0.8c-2.4-0.8-4 0.8-4.8 2.4-0.8 2.4 0 4.8 2.4 5.6zM454.4 587.2h1.6c0 0 0 0 0.8 0 1.6 0 4-1.6 4-3.2 0-2.4-1.6-4-3.2-4.8h-1.6c-2.4 0-4 1.6-4.8 3.2-0.8 2.4 0.8 4 3.2 4.8zM506.4 700c0 0 0.8 0 0.8 0l1.6-0.8c2.4-0.8 3.2-2.4 3.2-4.8-0.8-2.4-2.4-3.2-4.8-3.2l-1.6 0.8c-2.4 0.8-3.2 2.4-3.2 4.8 0.8 1.6 2.4 3.2 4 3.2zM472 589.6h1.6c0 0 0.8 0 0.8 0 1.6 0 4-1.6 4-3.2 0-2.4-0.8-4-3.2-4.8h-1.6c-2.4 0-4 0.8-4.8 3.2s0.8 4 3.2 4.8zM541.6 690.4c0.8 0 0.8 0 1.6 0h0.8c2.4-0.8 3.2-3.2 2.4-4.8-0.8-2.4-3.2-3.2-4.8-2.4h-1.6c-2.4 0.8-3.2 3.2-2.4 4.8s2.4 2.4 4 2.4zM507.2 596l1.6 0.8c0 0 0.8 0 0.8 0 1.6 0 3.2-1.6 4-3.2 0.8-2.4-0.8-4-3.2-4.8l-1.6-0.8c-2.4-0.8-4 0.8-4.8 3.2s0.8 4.8 3.2 4.8zM572.8 620l1.6 0.8c0.8 0.8 1.6 0.8 2.4 0.8 1.6 0 2.4-0.8 3.2-1.6 0.8-1.6 0.8-4-1.6-5.6l-1.6-0.8c-1.6-0.8-4-0.8-5.6 1.6-0.8 0.8-0.8 4 1.6 4.8zM588 665.6c0.8 0 2.4 0 3.2-0.8s0.8-0.8 1.6-1.6c1.6-1.6 1.6-4 0-5.6s-4-1.6-5.6 0c0 0.8-0.8 0.8-1.6 1.6-1.6 1.6-1.6 4 0 5.6 0 0 0.8 0.8 2.4 0.8zM573.6 676c0.8 0 1.6 0 2.4-0.8l1.6-0.8c1.6-0.8 2.4-4 1.6-5.6s-4-2.4-5.6-1.6l-1.6 0.8c-1.6 0.8-2.4 3.2-1.6 5.6 0.8 1.6 1.6 2.4 3.2 2.4zM541.6 605.6l1.6 0.8c0.8 0 0.8 0 1.6 0 1.6 0 3.2-0.8 4-2.4 0.8-2.4 0-4-2.4-4.8l-2.4-0.8h-0.8c-2.4-0.8-4 0.8-4.8 2.4-0.8 2.4 0.8 4.8 3.2 4.8zM556.8 612l1.6 0.8c0.8 0 0.8 0 1.6 0 1.6 0 3.2-0.8 4-2.4 0.8-2.4 0-4-1.6-5.6h-2.4c-2.4-0.8-4 0-5.6 2.4 0 1.6 0.8 4 2.4 4.8zM557.6 684c0.8 0 0.8 0 1.6 0l1.6-0.8c2.4-0.8 3.2-3.2 2.4-5.6s-3.2-3.2-5.6-2.4l-1.6 0.8c-2.4 0.8-3.2 3.2-2.4 5.6 0.8 1.6 2.4 2.4 4 2.4z"></path>
</symbol>
<symbol id="icon-laptop" viewBox="0 0 1024 1024">
	<title>laptop</title>
	<path class="path1" d="M956 642.4c-1.6-4-4.8-7.2-8.8-8.8 8-5.6 12.8-15.2 12.8-25.6v-472c0-17.6-14.4-32-32-32h-832c-17.6 0-32 14.4-32 32v472c0 10.4 4.8 20 12.8 25.6-4 1.6-7.2 4.8-8.8 8.8l-68 189.6v40c0 8.8 7.2 16 16 16h992c8.8 0 16-7.2 16-16v-40l-68-189.6zM143.2 696h49.6l-6.4 24h-50.4l7.2-24zM112 688l7.2-24h49.6l-6.4 24h-50.4zM174.4 688l6.4-24h48.8l-4.8 24h-50.4zM204.8 696h48.8l-4.8 24h-50.4l6.4-24zM237.6 688l4.8-24h48.8l-3.2 24h-50.4zM266.4 696h48.8l-3.2 24h-49.6l4-24zM300.8 688l4-24h48.8l-3.2 24h-49.6zM328.8 696h48.8l-3.2 24h-49.6l4-24zM364 688l2.4-24h48.8l-1.6 24h-49.6zM390.4 696h48.8l-1.6 24h-49.6l2.4-24zM426.4 688l1.6-24h48.8l-0.8 24h-49.6zM452 696h52.8l-0.8 24h-53.6l1.6-24zM488 688v-24h48l0.8 24h-48.8zM572 696l1.6 24h-55.2l-0.8-24h54.4zM547.2 688l-0.8-24h48.8l1.6 24h-49.6zM633.6 696l2.4 24h-49.6l-1.6-24h48.8zM610.4 688l-1.6-24h48.8l2.4 24h-49.6zM695.2 696l4 24h-49.6l-3.2-24h48.8zM673.6 688l-3.2-24h48.8l4 24h-49.6zM757.6 696l4.8 24h-50.4l-4-24h49.6zM736 688l-4-24h48.8l4.8 24h-49.6zM819.2 696l6.4 24h-50.4l-4.8-24h48.8zM799.2 688l-4.8-24h48.8l6.4 24h-50.4zM880.8 696l7.2 24h-50.4l-6.4-24h49.6zM861.6 688l-6.4-24h49.6l7.2 24h-50.4zM512 112c4.8 0 8 3.2 8 8s-3.2 8-8 8-8-3.2-8-8c0-4.8 3.2-8 8-8zM96 136h832v472h-832v-472zM135.2 752h-51.2l8-24h50.4l-7.2 24zM199.2 752h-51.2l6.4-24h50.4l-5.6 24zM264 752h-51.2l5.6-24h50.4l-4.8 24zM328 752h-51.2l4-24h50.4l-3.2 24zM392 752h-51.2l3.2-24h49.6l-1.6 24zM432 832l4-64h152l3.2 64h-159.2zM405.6 752l2.4-24h208l2.4 24h-212.8zM632 752l-2.4-24h49.6l3.2 24h-50.4zM696 752l-4-24h50.4l4 24h-50.4zM760 752l-4.8-24h50.4l5.6 24h-51.2zM824.8 752l-5.6-24h50.4l6.4 24h-51.2zM888.8 752l-7.2-24h50.4l8 24h-51.2z"></path>
</symbol>
<symbol id="icon-presentation" viewBox="0 0 1024 1024">
	<title>presentation</title>
	<path class="path1" d="M528 20.8l456 23.2c0 0 0 0 0 0 2.4 0 4-1.6 4-4s-1.6-4-4-4l-456-23.2v-4.8c0-4.8-3.2-8-8-8h-16c-4.8 0-8 3.2-8 8v4.8l-456 23.2c-2.4 0-4 1.6-4 4s2.4 4 4 4l456-23.2v27.2h-464v648h960v-648h-464v-27.2zM976 664h-928v-568h928v568zM496 704h32v96c0 4.8-3.2 8-8 8h-16c-4.8 0-8-3.2-8-8v-96zM1024 48v48c0 4.8-3.2 8-8 8h-16v-64h16c4.8 0 8 3.2 8 8zM1024 664v32c0 4.8-3.2 8-8 8h-16v-48h16c4.8 0 8 3.2 8 8zM8 40h16v64h-16c-4.8 0-8-3.2-8-8v-48c0-4.8 3.2-8 8-8zM8 656h16v48h-16c-4.8 0-8-3.2-8-8v-32c0-4.8 3.2-8 8-8zM904 488v-328h-328v328h328zM744 440v-32h72v32h-72zM816 448v32h-72v-32h72zM824 360v-32h72v32h-72zM896 368v32h-72v-32h72zM736 320h-72v-32h72v32zM744 288h72v32h-72v-32zM736 328v32h-72v-32h72zM744 328h72v32h-72v-32zM824 320v-32h72v32h-72zM824 280v-32h72v32h-72zM816 280h-72v-32h72v32zM736 280h-72v-32h72v32zM656 280h-72v-32h72v32zM656 288v32h-72v-32h72zM656 328v32h-72v-32h72zM656 368v32h-72v-32h72zM664 368h72v32h-72v-32zM744 368h72v32h-72v-32zM824 408h72v32h-72v-32zM896 240h-72v-32h72v32zM816 240h-72v-32h72v32zM744 200v-32h72v32h-72zM736 200h-72v-32h72v32zM736 208v32h-72v-32h72zM656 240h-72v-32h72v32zM584 408h72v32h-72v-32zM664 408h72v32h-72v-32zM736 448v32h-72v-32h72zM824 480v-32h72v32h-72zM896 200h-72v-32h72v32zM656 168v32h-72v-32h72zM584 448h72v32h-72v-32zM444 496h-324v-324c0-2.4 1.6-4 4-4s4 1.6 4 4v316h316c2.4 0 4 1.6 4 4s-1.6 4-4 4zM576 524c0-2.4 1.6-4 4-4h320c2.4 0 4 1.6 4 4s-1.6 4-4 4h-320c-2.4 0-4-1.6-4-4zM576 548c0-2.4 1.6-4 4-4h256c2.4 0 4 1.6 4 4s-1.6 4-4 4h-256c-2.4 0-4-1.6-4-4zM576 572c0-2.4 1.6-4 4-4h320c2.4 0 4 1.6 4 4s-1.6 4-4 4h-320c-2.4 0-4-1.6-4-4zM120 548c0-2.4 1.6-4 4-4h40c2.4 0 4 1.6 4 4s-1.6 4-4 4h-40c-2.4 0-4-1.6-4-4zM168 572c0 2.4-1.6 4-4 4h-40c-2.4 0-4-1.6-4-4s1.6-4 4-4h40c2.4 0 4 1.6 4 4zM448 548c0 2.4-1.6 4-4 4h-232c-2.4 0-4-1.6-4-4s1.6-4 4-4h232c2.4 0 4 1.6 4 4zM448 572c0 2.4-1.6 4-4 4h-232c-2.4 0-4-1.6-4-4s1.6-4 4-4h232c2.4 0 4 1.6 4 4zM576 596c0-2.4 1.6-4 4-4h256c2.4 0 4 1.6 4 4s-1.6 4-4 4h-256c-2.4 0-4-1.6-4-4zM201.6 295.2l-40-18.4c-3.2 2.4-6.4 3.2-9.6 3.2-8.8 0-16-7.2-16-16s7.2-16 16-16c8 0 15.2 6.4 16 14.4l39.2 17.6 20.8-54.4c-2.4-2.4-4-5.6-4-9.6 0-8.8 7.2-16 16-16s16 7.2 16 16c0 1.6 0 2.4-0.8 4l44.8 44.8c1.6 0 2.4-0.8 4-0.8 2.4 0 4.8 0.8 6.4 1.6l33.6-24c0-0.8 0-0.8 0-1.6 0-8.8 7.2-16 16-16 8 0 15.2 6.4 16 14.4l47.2 20.8c2.4-1.6 5.6-3.2 9.6-3.2 8.8 0 16 7.2 16 16s-7.2 16-16 16c-8 0-15.2-6.4-16-14.4l-47.2-20.8c-3.2 2.4-6.4 3.2-9.6 3.2-2.4 0-4.8-0.8-6.4-1.6l-33.6 24c0 0.8 0 0.8 0 1.6 0 8.8-7.2 16-16 16s-16-7.2-16-16c0-1.6 0-2.4 0.8-4l-44.8-44.8c-0.8 0-0.8 0-1.6 0l-20.8 55.2 8.8 4c2.4-1.6 5.6-3.2 9.6-3.2 8.8 0 16 7.2 16 16 0 2.4-0.8 4.8-1.6 6.4l48 65.6c0.8 0 0.8 0 1.6 0 2.4 0 4.8 0.8 7.2 1.6l72.8-48.8c0 0 0-0.8 0-0.8 0-8.8 7.2-16 16-16s16 7.2 16 16c0 2.4-0.8 4.8-1.6 7.2l16.8 24.8c0 0 0.8 0 0.8 0 8.8 0 16 7.2 16 16s-7.2 16-16 16-16-7.2-16-16c0-2.4 0.8-4.8 1.6-7.2l-16.8-24c0 0-0.8 0-0.8 0-2.4 0-4.8-0.8-7.2-1.6l-72.8 48.8c0 0 0 0.8 0 0.8 0 8.8-7.2 16-16 16s-16-7.2-16-16c0-2.4 0.8-4.8 1.6-6.4l-48-65.6c-0.8 0-0.8 0-1.6 0-8 0-15.2-6.4-16-14.4l-8-4-52 136c2.4 2.4 4 6.4 4 10.4 0 8.8-7.2 16-16 16s-16-7.2-16-16c0-8 5.6-14.4 13.6-16l52-136.8zM241.6 976l246.4-250.4v45.6l-224 228c0 0 0 0 0 0.8 0 13.6-10.4 24-24 24s-24-10.4-24-24 10.4-24 24-24c0.8 0 1.6 0 1.6 0zM808 1000c0 13.6-10.4 24-24 24s-24-10.4-24-24c0 0 0 0 0-0.8l-224-228v-45.6l246.4 250.4c0.8 0 1.6 0 1.6 0 13.6 0 24 10.4 24 24z"></path>
</symbol>
<symbol id="icon-product" viewBox="0 0 1024 1024">
	<title>product</title>
	<path class="path1" d="M1020 237.6l-160-192c-2.4-3.2-7.2-5.6-12-5.6h-672c-4.8 0-9.6 2.4-12 5.6l-160 192c0 0-4 4.8-4 10.4s0 704 0 704c0 8.8 7.2 16 16 16h992c8.8 0 16-7.2 16-16 0 0 0-698.4 0-704 0-6.4-4-10.4-4-10.4zM973.6 232h-376l-27.2-160h269.6l133.6 160zM584 248.8v58.4l-4.8-2.4c-2.4-0.8-4.8-0.8-7.2 0l-12 6.4-12.8-6.4c-0.8-0.8-1.6-0.8-3.2-0.8s-2.4 0-3.2 0.8l-12.8 6.4-12.8-6.4c-2.4-0.8-4.8-0.8-7.2 0l-12 6.4-12.8-6.4c-2.4-0.8-4.8-0.8-7.2 0l-12 6.4-12.8-6.4c-2.4-0.8-4.8-0.8-7.2 0l-4 2.4v-59.2l144 0.8zM554.4 72l26.4 160h-138.4l26.4-160h85.6zM183.2 72h269.6l-26.4 160h-376l132.8-160zM992 936h-960v-672h392v56c0 2.4 1.6 5.6 4 7.2 1.6 0.8 2.4 0.8 4 0.8s2.4 0 3.2-0.8l12.8-6.4 12.8 6.4c2.4 0.8 4.8 0.8 7.2 0l12.8-6.4 12.8 6.4c2.4 0.8 4.8 0.8 7.2 0l12.8-6.4 12.8 6.4c2.4 0.8 4.8 0.8 7.2 0l12.8-6.4 12.8 6.4c2.4 0.8 4.8 0.8 7.2 0l12.8-6.4 12.8 6.4c2.4 1.6 5.6 0.8 8 0 2.4-1.6 4-4 4-7.2v-56h392v672zM608 376c17.6 0 32 14.4 32 32s-14.4 32-32 32h-192c-17.6 0-32-14.4-32-32s14.4-32 32-32h192zM699.2 865.6c0 0 0-14.4 0-20 0-14.4-24.8-8.8-24.8-39.2 0-21.6 4.8-54.4 4.8-54.4h16.8l6.4 16-12 14.4 15.2 15.2-6.4 21.6 15.2-24-10.4-12.8 10.4-12-5.6-18.4h20c0 0 4.8 32.8 4.8 54.4 0 29.6-24.8 24.8-24.8 39.2 0 5.6 0 20 0 20 0 9.6 24.8 4.8 24.8 14.4h-59.2c0-9.6 24.8-5.6 24.8-14.4zM928 880h-128v-16h128v16zM824 784h-16l24-32 24 32h-16v72h-16v-72zM80 792h16v88h-16v-88zM104 792h16v88h-16v-88zM200 792h16v88h-16v-88zM128 792h8v88h-8v-88zM152 792h8v88h-8v-88zM224 792h8v88h-8v-88zM168 792h24v88h-24v-88zM888 784h-16l24-32 24 32h-16v72h-16v-72z"></path>
</symbol>
<symbol id="icon-vk" viewBox="0 0 1024 1024">
	<title>vk</title>
	<path class="path1" d="M512 0c-282.76 0-512 229.229-512 512s229.24 512 512 512 512-229.229 512-512-229.24-512-512-512zM771.714 567.375c23.864 23.308 49.11 45.245 70.533 70.962 9.491 11.377 18.437 23.141 25.246 36.372 9.721 18.867 0.943 39.556-15.944 40.677l-104.893-0.021c-27.090 2.242-48.649-8.684-66.825-27.205-14.509-14.76-27.97-30.526-41.945-45.789-5.709-6.264-11.722-12.162-18.888-16.803-14.299-9.302-26.724-6.453-34.916 8.485-8.349 15.2-10.256 32.045-11.052 48.963-1.142 24.733-8.601 31.197-33.417 32.359-53.028 2.483-103.343-5.563-150.106-32.297-41.253-23.581-73.183-56.862-101.007-94.543-54.18-73.456-95.675-154.077-132.958-237.013-8.391-18.678-2.252-28.672 18.353-29.060 34.235-0.66 68.469-0.576 102.704-0.031 13.933 0.22 23.151 8.192 28.504 21.339 18.5 45.517 41.18 88.823 69.601 128.987 7.574 10.696 15.305 21.36 26.315 28.913 12.152 8.339 21.412 5.584 27.143-7.982 3.666-8.622 5.248-17.84 6.044-27.080 2.724-31.647 3.048-63.284-1.666-94.805-2.933-19.726-14.027-32.464-33.69-36.194-10.015-1.896-8.548-5.605-3.677-11.324 8.454-9.889 16.374-16.007 32.202-16.007l118.512-0.021c18.678 3.666 22.868 12.047 25.404 30.861l0.105 131.701c-0.22 7.281 3.656 28.861 16.73 33.627 10.476 3.457 17.39-4.945 23.654-11.576 28.421-30.16 48.67-65.756 66.804-102.599 8.003-16.248 14.907-33.061 21.611-49.906 4.986-12.456 12.738-18.584 26.797-18.374l114.122 0.136c3.363 0 6.778 0.031 10.109 0.608 19.233 3.289 24.503 11.565 18.552 30.327-9.365 29.479-27.562 54.034-45.349 78.652-19.066 26.357-39.399 51.792-58.276 78.264-17.348 24.199-15.975 36.382 5.563 57.396z"></path>
</symbol>
<symbol id="icon-facebook" viewBox="0 0 1024 1024">
	<title>facebook</title>
	<path class="path1" d="M512 0c-282.316 0-512 229.684-512 512 0 282.295 229.684 512 512 512 282.295 0 512-229.705 512-512 0-282.316-229.664-512-512-512zM639.33 530.025h-83.298c0 133.084 0 296.896 0 296.896h-123.432c0 0 0-162.225 0-296.896h-58.674v-104.933h58.674v-67.872c0-48.61 23.098-124.566 124.566-124.566l91.465 0.351v101.86c0 0-55.58 0-66.387 0s-26.171 5.403-26.171 28.584v61.664h94.043l-10.786 104.912z"></path>
</symbol>
<symbol id="icon-twitter" viewBox="0 0 1024 1024">
	<title>twitter</title>
	<path class="path1" d="M512 0c-282.316 0-512 229.684-512 512 0 282.295 229.684 512 512 512 282.295 0 512-229.705 512-512 0-282.316-229.664-512-512-512zM740.406 394.817c0.227 5.073 0.351 10.188 0.351 15.303 0 155.728-118.503 335.236-335.318 335.236-66.552 0-128.505-19.448-180.642-52.899 9.219 1.093 18.602 1.65 28.11 1.65 55.23 0 106.026-18.85 146.365-50.445-51.559-0.949-95.095-35.019-110.088-81.855 7.177 1.361 14.581 2.124 22.15 2.124 10.745 0 21.18-1.402 31.059-4.104-53.91-10.807-94.518-58.426-94.518-115.554 0-0.495 0-1.011 0.021-1.485 15.88 8.806 34.049 14.127 53.353 14.725-31.595-21.098-52.404-57.189-52.404-98.065 0-21.613 5.795-41.866 15.942-59.272 58.097 71.316 144.963 118.214 242.883 123.164-2.021-8.641-3.032-17.613-3.032-26.872 0-65.067 52.755-117.843 117.822-117.843 33.905 0 64.49 14.313 86.021 37.205 26.872-5.28 52.033-15.055 74.863-28.605-8.868 27.532-27.491 50.61-51.889 65.212 23.861-2.846 46.63-9.157 67.686-18.541-15.715 23.593-35.699 44.361-58.736 60.922z"></path>
</symbol>
<symbol id="icon-youtube" viewBox="0 0 1024 1024">
	<title>youtube</title>
	<path class="path1" d="M268.974 549.786h40.593v219.707h38.404v-219.707h41.348v-35.984h-120.345z"></path>
	<path class="path2" d="M593.7 576.646c-12.697 0-24.545 6.935-35.68 20.658v-83.512h-34.517v255.701h34.517v-18.458c11.555 14.257 23.392 21.088 35.68 21.088 13.734 0 22.973-7.228 27.583-21.412 2.315-8.077 3.499-20.763 3.499-38.393v-75.865c0-18.039-1.184-30.631-3.499-38.289-4.599-14.289-13.859-21.517-27.583-21.517zM590.243 715.019c0 17.222-5.049 25.707-15.022 25.707-5.667 0-11.439-2.713-17.212-8.496v-116.113c5.772-5.709 11.544-8.412 17.212-8.412 9.962 0 15.022 8.821 15.022 26.001v81.312z"></path>
	<path class="path3" d="M459.087 724.573c-7.658 10.821-14.896 16.154-21.831 16.154-4.609 0-7.239-2.713-8.077-8.077-0.314-1.11-0.314-5.322-0.314-13.409v-140.27h-34.528v150.63c0 13.461 1.163 22.554 3.048 28.337 3.467 9.659 11.136 14.184 22.24 14.184 12.707 0 25.739-7.668 39.462-23.403v20.784h34.549v-190.532h-34.549v145.602z"></path>
	<path class="path4" d="M488.723 402.958c11.24 0 16.635-8.915 16.635-26.724v-80.988c0-17.819-5.395-26.692-16.635-26.692-11.251 0-16.656 8.883-16.656 26.692v80.988c0 17.819 5.405 26.724 16.656 26.724z"></path>
	<path class="path5" d="M512 0c-282.771 0-512 229.229-512 512s229.229 512 512 512 512-229.229 512-512-229.229-512-512-512zM568.946 239.475h34.79v141.757c0 8.182 0 12.424 0.419 13.566 0.765 5.405 3.509 8.171 8.182 8.171 6.977 0 14.299-5.405 22.041-16.332v-147.163h34.884v192.533h-34.884v-20.993c-13.891 15.923-27.132 23.644-39.86 23.644-11.23 0-18.982-4.557-22.481-14.299-1.928-5.835-3.090-15.043-3.090-28.63v-152.254zM437.183 302.255c0-20.585 3.499-35.628 10.916-45.36 9.648-13.168 23.235-19.747 40.625-19.747 17.473 0 31.050 6.579 40.698 19.747 7.312 9.721 10.811 24.775 10.811 45.36v67.422c0 20.47-3.499 35.649-10.811 45.276-9.648 13.137-23.225 19.705-40.698 19.705-17.39 0-30.977-6.568-40.625-19.705-7.417-9.627-10.916-24.817-10.916-45.276v-67.422zM343.886 173.645l27.467 101.457 26.388-101.457h39.127l-46.544 153.731v104.642h-38.676v-104.642c-3.509-18.542-11.251-45.705-23.665-81.742-8.15-23.979-16.646-48.031-24.796-71.989h40.698zM787.626 786.317c-6.998 30.369-31.836 52.787-61.744 56.129-70.847 7.909-142.511 7.951-213.914 7.909-71.371 0.042-143.077 0-213.903-7.909-29.908-3.342-54.757-25.749-61.733-56.129-9.962-43.254-9.962-90.489-9.962-135.032s0.126-91.767 10.078-135.032c6.987-30.38 31.815-52.798 61.723-56.129 70.837-7.909 142.532-7.951 213.924-7.909 71.371-0.042 143.067 0 213.903 7.909 29.908 3.342 54.757 25.749 61.765 56.129 9.931 43.265 9.868 90.489 9.868 135.032s-0.042 91.778-10.004 135.032z"></path>
	<path class="path6" d="M703.653 576.646c-17.662 0-31.375 6.484-41.348 19.527-7.323 9.638-10.664 24.534-10.664 44.888v66.741c0 20.25 3.74 35.251 11.094 44.794 9.962 13.011 23.717 19.516 41.777 19.516 18.029 0 32.181-6.82 41.735-20.658 4.19-6.118 6.914-13.042 8.066-20.69 0.325-3.457 0.733-11.115 0.733-22.25v-5.018h-35.209c0 13.828-0.45 21.507-0.754 23.382-1.969 9.229-6.935 13.838-15.431 13.838-11.858 0-17.662-8.8-17.662-26.42v-33.795h69.056v-39.462c0-20.354-3.447-35.251-10.685-44.888-9.648-13.011-23.382-19.506-40.709-19.506zM720.54 651.777h-34.528v-17.631c0-17.62 5.793-26.43 17.327-26.43 11.419 0 17.201 8.821 17.201 26.43v17.631z"></path>
</symbol>
<symbol id="icon-google-plus" viewBox="0 0 1024 1024">
	<title>google-plus</title>
	<path class="path1" d="M443.406 596.845c-3.32-2.207-6.723-4.599-10.291-7.012-10.374-3.176-21.387-4.826-32.668-4.97h-1.361c-51.848 0-97.302 31.368-97.302 67.171 0 38.978 38.958 69.439 88.661 69.439 65.562 0 98.787-22.645 98.787-67.191 0-4.207-0.495-8.579-1.547-12.972-4.434-17.283-20.294-28.069-44.279-44.464z"></path>
	<path class="path2" d="M406.676 460.977c0.041 0 0.041 0 0.041 0 12.395 0 22.851-4.888 30.956-14.168 12.704-14.478 18.334-38.236 14.993-63.459-5.878-45.083-38.112-82.618-71.749-83.587l-1.341-0.041c-11.9 0-22.521 4.908-30.585 14.148-12.518 14.292-17.819 36.937-14.54 62.118 5.898 45.042 38.814 83.958 71.749 84.99h0.474z"></path>
	<path class="path3" d="M512 0c-282.316 0-512 229.684-512 512 0 282.295 229.684 512 512 512 282.295 0 512-229.705 512-512 0-282.316-229.664-512-512-512zM452.975 761.318c-19.345 5.589-40.278 8.414-62.242 8.414-24.46 0-47.97-2.805-69.893-8.353-42.423-10.704-73.77-30.997-88.413-57.148-6.311-11.302-9.507-23.346-9.507-35.823 0-12.848 3.073-25.883 9.136-38.793 23.243-49.538 84.515-82.865 152.387-82.865 0.681 0 1.32 0 1.939 0-5.506-9.714-8.167-19.778-8.167-30.358 0-5.259 0.701-10.621 2.104-16.086-71.192-1.609-124.463-53.745-124.463-122.483 0-48.527 38.793-95.817 94.27-114.914 16.602-5.733 33.534-8.662 50.177-8.662h152.243c5.177 0 9.776 3.362 11.384 8.291 1.609 4.908-0.165 10.312-4.352 13.343l-34.049 24.645c-2.042 1.444-4.496 2.227-7.033 2.227h-12.189c15.736 18.871 24.954 45.784 24.954 75.998 0 33.348-16.87 64.882-47.579 88.908-23.717 18.479-24.645 23.573-24.645 34.111 0.289 5.795 16.808 24.707 35.039 37.597 42.464 30.028 58.262 59.499 58.262 108.665-0.021 51.373-39.020 95.755-99.364 113.285zM796.79 500.183c0 6.6-5.383 11.962-11.962 11.962h-86.516v86.557c0 6.6-5.383 11.962-11.92 11.962h-24.645c-6.641 0-12.003-5.362-12.003-11.962v-86.557h-86.454c-6.6 0-11.962-5.321-11.962-11.962v-24.604c0-6.6 5.362-12.003 11.962-12.003h86.454v-86.475c0-6.62 5.362-11.962 12.003-11.962h24.645c6.538 0 11.92 5.341 11.92 11.962v86.475h86.495c6.579 0 11.962 5.362 11.962 11.962v24.645z"></path>
</symbol>
<symbol id="icon-linkedin" viewBox="0 0 1024 1024">
	<title>linkedin</title>
	<path class="path1" d="M512 0c-282.752 0-512 229.248-512 512s229.248 512 512 512 512-229.248 512-512c0-282.816-229.248-512-512-512zM384 760h-128v-448h128v448zM323.968 284.544c-33.152 0-59.968-26.88-59.968-60.032s26.88-60.032 59.968-60.032c33.152 0.064 60.032 26.944 60.032 60.032 0 33.152-26.88 60.032-60.032 60.032zM832 760h-128v-276.992c0-32.448-9.28-55.168-49.152-55.168-66.112 0-78.848 55.168-78.848 55.168v276.992h-128v-448h128v42.816c18.304-14.016 64-42.752 128-42.752 41.472 0 128 24.832 128 174.848v273.088z"></path>
</symbol>
<symbol id="icon-arrow-with-circle-up" viewBox="0 0 1024 1024">
	<title>arrow-with-circle-up</title>
	<path class="path1" d="M512 20.48c-271.514 0-491.571 220.058-491.571 491.52 0 271.514 220.058 491.571 491.571 491.571 271.411 0 491.52-220.058 491.52-491.571 0-271.462-220.109-491.52-491.52-491.52zM511.949 901.12c-214.886 0-389.12-174.182-389.12-389.12s174.182-389.12 389.12-389.12 389.171 174.234 389.171 389.12-174.285 389.12-389.171 389.12zM512 281.6l230.4 230.4h-128v204.8h-204.8v-204.8h-128l230.4-230.4z"></path>
</symbol>
<symbol id="icon-circle-up" viewBox="0 0 1024 1024">
	<title>circle-up</title>
	<path class="path1" d="M0 512c0 282.77 229.23 512 512 512s512-229.23 512-512-229.23-512-512-512-512 229.23-512 512zM928 512c0 229.75-186.25 416-416 416s-416-186.25-416-416 186.25-416 416-416 416 186.25 416 416z"></path>
	<path class="path2" d="M706.744 669.256l90.512-90.512-285.256-285.254-285.254 285.256 90.508 90.508 194.746-194.744z"></path>
</symbol>
<symbol id="icon-arrow-back" viewBox="0 0 1024 1024">
	<title>arrow-back</title>
	<path class="path1" d="M512 386.517v-109.184c0-10.923-4.181-21.845-12.501-30.208-8.32-8.32-19.243-12.459-30.165-12.459s-21.845 4.139-30.165 12.459l-268.501 264.875 268.501 264.832c8.32 8.32 19.243 12.501 30.165 12.501s21.845-4.181 30.165-12.501 12.501-19.285 12.501-30.165v-106.197c117.333 2.901 245.547 24.149 341.333 170.197v-42.667c0-197.675-149.333-360.235-341.333-381.483z"></path>
</symbol>
</defs>
</svg>